<?xml version="1.0" encoding="UTF-8"?>
<svg xmlns="http://www.w3.org/2000/svg" xmlns:xlink="http://www.w3.org/1999/xlink" width="187.5pt" height="187.499995pt" viewBox="0 0 187.5 187.499995" version="1.2">
<defs>
<clipPath id="clip1">
  <path d="M 63 39 L 126.117188 39 L 126.117188 147 L 63 147 Z M 63 39 "/>
</clipPath>
<clipPath id="clip2">
  <path d="M 67 41 L 126.117188 41 L 126.117188 144 L 67 144 Z M 67 41 "/>
</clipPath>
</defs>
<g id="surface1">
<g clip-path="url(#clip1)" clip-rule="nonzero">
<path style=" stroke:none;fill-rule:nonzero;fill:rgb(93.728638%,69.799805%,48.239136%);fill-opacity:1;" d="M 122.683594 68.890625 C 122.5625 68.734375 122.445312 68.578125 122.328125 68.414062 C 117.929688 62.335938 118.554688 54.375 114.210938 49.023438 C 109.632812 43.375 101.164062 39.421875 93.972656 39.097656 C 67.351562 37.898438 61.636719 66.328125 63.703125 86.8125 C 64.605469 95.773438 68.339844 102.5 72.074219 110.449219 C 75.039062 116.761719 80.550781 121.296875 83.726562 127.292969 C 86.832031 133.152344 88.890625 138.136719 94.734375 142.070312 C 106.003906 149.660156 118.996094 148.613281 125.144531 134 C 125.515625 133.121094 125.917969 132.175781 126.332031 131.195312 L 126.332031 73.179688 C 126.199219 73.015625 126.0625 72.855469 125.925781 72.695312 C 124.847656 71.433594 123.710938 70.203125 122.683594 68.890625 Z M 122.683594 68.890625 "/>
</g>
<path style=" stroke:none;fill-rule:nonzero;fill:rgb(86.669922%,61.178589%,39.99939%);fill-opacity:1;" d="M 117.515625 107.9375 C 115.617188 105.976562 114.832031 103.558594 114.855469 100.910156 C 114.859375 100.695312 114.863281 100.476562 114.875 100.242188 C 115.058594 97.117188 116.167969 92.933594 113.09375 90.734375 C 111 89.230469 107.9375 89.972656 105.953125 91.617188 C 103.964844 93.253906 102.730469 95.59375 101.273438 97.714844 C 100.652344 98.625 99.953125 99.515625 99.15625 100.28125 C 98.085938 101.316406 96.847656 102.125 95.398438 102.4375 C 86.667969 104.3125 89.28125 94.457031 91.996094 90.726562 C 91.996094 90.726562 95.003906 89.121094 98.617188 86.605469 C 104.050781 82.832031 110.855469 77.007812 110.855469 71.527344 C 110.855469 59.546875 102.625 46.550781 89.066406 50.921875 C 83.757812 52.636719 80.160156 56.339844 77.898438 60.90625 C 76.429688 63.867188 75.519531 67.191406 75.066406 70.566406 C 73.246094 84.121094 74.4375 99.46875 80.589844 111.867188 C 83.242188 117.210938 89.074219 124.324219 95.1875 125.929688 C 97 126.40625 99.257812 125.765625 99.96875 124.046875 C 100.59375 122.53125 99.855469 120.746094 100.324219 119.175781 C 100.78125 117.648438 102.339844 116.636719 103.925781 116.390625 C 105.515625 116.148438 107.128906 116.546875 108.648438 117.054688 C 110.847656 117.789062 112.980469 118.773438 115.261719 119.203125 C 116.78125 119.496094 118.417969 119.503906 119.886719 119.058594 C 120.613281 118.835938 121.300781 118.5 121.90625 118.03125 C 121.960938 117.984375 122.015625 117.945312 122.070312 117.894531 C 123.003906 117.097656 123.632812 115.914062 123.777344 114.714844 C 123.902344 113.722656 123.699219 112.71875 123.078125 111.917969 C 121.664062 110.109375 119.113281 109.589844 117.515625 107.9375 Z M 117.515625 107.9375 "/>
<path style=" stroke:none;fill-rule:nonzero;fill:rgb(83.139038%,56.858826%,34.899902%);fill-opacity:1;" d="M 89.066406 50.921875 C 83.757812 52.636719 80.160156 56.339844 77.898438 60.90625 C 86.734375 60.855469 100.945312 65.175781 98.617188 86.605469 C 104.050781 82.832031 110.855469 77.007812 110.855469 71.527344 C 110.855469 59.546875 102.625 46.550781 89.066406 50.921875 Z M 89.066406 50.921875 "/>
<path style=" stroke:none;fill-rule:nonzero;fill:rgb(83.139038%,56.858826%,34.899902%);fill-opacity:1;" d="M 114.875 100.242188 C 115.058594 97.117188 116.167969 92.933594 113.09375 90.734375 C 111 89.230469 107.9375 89.972656 105.953125 91.617188 C 103.964844 93.253906 102.730469 95.59375 101.273438 97.714844 C 100.652344 98.625 99.953125 99.515625 99.15625 100.28125 C 100.691406 101.914062 102.808594 103.628906 105.167969 105.726562 C 110.460938 110.425781 120.808594 109.394531 122.070312 117.894531 C 123.003906 117.097656 123.632812 115.914062 123.777344 114.714844 C 122.828125 113.3125 121.546875 111.953125 120.195312 110.679688 C 116.640625 107.332031 114.582031 105.304688 114.875 100.242188 Z M 114.875 100.242188 "/>
<path style=" stroke:none;fill-rule:nonzero;fill:rgb(93.728638%,69.799805%,48.239136%);fill-opacity:1;" d="M 116.078125 115.664062 C 107.292969 117.628906 96.75 115.539062 90.855469 108.933594 C 83.757812 100.984375 83.253906 89.65625 91.992188 83.046875 C 94.828125 80.90625 102.695312 76.664062 102.167969 72.386719 C 101.4375 66.492188 93.046875 70.480469 90.980469 65.976562 C 89.863281 63.542969 92.003906 59.992188 89.488281 58.4375 C 88.460938 57.796875 87.136719 57.863281 86.113281 58.515625 C 84.265625 59.695312 82.824219 60.929688 81.6875 62.230469 C 77.613281 66.882812 77.480469 72.335938 76.882812 78.800781 C 76.097656 87.296875 76.75 95.652344 80.179688 103.5625 C 83.792969 111.898438 90.582031 120.171875 99.648438 122.253906 C 106.007812 123.714844 113.226562 123.554688 119.5625 121.925781 C 119.5625 121.925781 119.9375 121.699219 120.304688 121.046875 C 121.878906 118.230469 119.242188 114.957031 116.078125 115.664062 Z M 116.078125 115.664062 "/>
<g clip-path="url(#clip2)" clip-rule="nonzero">
<path style=" stroke:none;fill-rule:nonzero;fill:rgb(95.289612%,78.42865%,62.748718%);fill-opacity:1;" d="M 122.683594 68.890625 C 122.5625 68.734375 122.445312 68.578125 122.328125 68.414062 C 120.332031 73.226562 117.011719 77.507812 114.441406 82.167969 C 113.441406 83.980469 113.824219 86.210938 115.324219 87.644531 C 117.769531 89.976562 120.769531 94.328125 119.359375 100.925781 C 118.082031 106.902344 121.039062 110.519531 123.84375 112.535156 C 123.910156 113.410156 123.910156 114.285156 123.785156 115.152344 C 123.488281 117.183594 122.386719 119.210938 120.515625 120.09375 C 120.3125 120.191406 120.113281 120.261719 119.921875 120.320312 C 117.789062 120.9375 116.238281 119.316406 114.238281 118.738281 C 112.035156 118.097656 109.542969 118.210938 107.273438 118.117188 C 102.539062 117.929688 97.460938 117.957031 93.667969 114.683594 C 84.332031 106.324219 76.804688 87.84375 92.585938 79.460938 C 93.828125 78.800781 95.1875 78.289062 96.171875 77.292969 C 101.027344 72.394531 91.648438 73.152344 89.75 72.21875 C 88.070312 71.394531 87.570312 69.957031 87.296875 68.210938 C 86.96875 66.15625 86.605469 62.617188 83.914062 65.609375 C 79.300781 70.742188 78.59375 80.269531 78.640625 86.835938 C 78.6875 93.820312 80.859375 100.839844 84.417969 106.84375 C 86.226562 109.886719 88.464844 112.984375 91.207031 115.277344 C 93.6875 117.355469 97.523438 116.960938 99.15625 120.085938 C 102.453125 126.414062 95.515625 128.453125 91.335938 125.210938 C 87.886719 122.542969 85.503906 118.695312 83.023438 115.183594 C 78.3125 108.503906 74.914062 100.960938 72.671875 93.128906 C 68.863281 79.785156 70.042969 65.539062 78.484375 54.140625 C 85.761719 44.3125 101.398438 44.320312 107.578125 51.550781 C 117.921875 63.648438 109.796875 82.214844 98.074219 89.675781 C 96.785156 90.496094 95.429688 91.238281 94.320312 92.289062 C 93.214844 93.335938 92.359375 94.765625 92.40625 96.285156 C 92.457031 97.800781 93.628906 99.328125 95.160156 99.40625 C 96.863281 99.492188 98.148438 97.953125 99.128906 96.570312 C 106.890625 85.605469 117.578125 75.300781 115.660156 60.773438 C 113.898438 47.855469 106.964844 42.554688 96.5625 41.683594 C 94.777344 41.539062 92.976562 41.503906 91.191406 41.65625 C 74.085938 43.125 68.511719 60.1875 68.042969 74.871094 C 67.699219 85.75 69.25 96.953125 74.253906 106.753906 C 76.496094 111.148438 79.410156 114.710938 82.632812 118.347656 C 86.144531 122.304688 88.863281 127.292969 91.835938 131.683594 C 92.929688 133.300781 94.039062 134.929688 95.5 136.222656 C 95.617188 136.324219 95.738281 136.425781 95.859375 136.527344 C 99.148438 141.285156 105.082031 144.234375 110.863281 143.589844 C 119.046875 142.675781 124.164062 135.1875 126.332031 127.007812 L 126.332031 106.761719 C 126.332031 101.453125 126.339844 96.144531 126.332031 90.835938 C 126.328125 88.679688 125.902344 86.371094 126.148438 84.234375 C 126.191406 83.84375 126.253906 83.46875 126.332031 83.097656 L 126.332031 73.179688 C 126.199219 73.015625 126.0625 72.855469 125.925781 72.695312 C 124.847656 71.433594 123.710938 70.203125 122.683594 68.890625 Z M 122.683594 68.890625 "/>
</g>
</g>
</svg>
