<?xml version="1.0" encoding="UTF-8"?>
<svg xmlns="http://www.w3.org/2000/svg" xmlns:xlink="http://www.w3.org/1999/xlink" width="375pt" height="374.999991pt" viewBox="0 0 375 374.999991" version="1.2">
<defs>
<clipPath id="clip1">
  <path d="M 38 234 L 324.75 234 L 324.75 260 L 38 260 Z M 38 234 "/>
</clipPath>
<clipPath id="clip2">
  <path d="M 37.5 254 L 324.75 254 L 324.75 262.863281 L 37.5 262.863281 Z M 37.5 254 "/>
</clipPath>
</defs>
<g id="surface1">
<path style=" stroke:none;fill-rule:nonzero;fill:rgb(98.039246%,75.289917%,56.079102%);fill-opacity:1;" d="M 227.613281 191.1875 C 227.613281 191.1875 226.847656 196.273438 227.078125 196.957031 C 227.304688 197.640625 244.941406 215.414062 245.628906 215.792969 C 246.316406 216.175781 249.484375 213.308594 251.714844 214.445312 C 253.949219 215.585938 257.210938 220.769531 256.238281 221.507812 C 255.265625 222.25 241.066406 220.859375 239.578125 220.644531 C 238.089844 220.425781 214.902344 199.804688 214.441406 199.007812 C 213.984375 198.210938 219.253906 188.015625 219.253906 188.015625 L 227.613281 191.1875 "/>
<path style=" stroke:none;fill-rule:nonzero;fill:rgb(78.42865%,60.389709%,45.878601%);fill-opacity:1;" d="M 221.140625 188.867188 C 221.140625 188.867188 221.429688 195.648438 221.941406 196.046875 C 222.460938 196.445312 225.035156 197.128906 225.207031 197.355469 C 225.378906 197.585938 222.6875 199.589844 222.917969 200.011719 C 223.144531 200.433594 240.207031 216.667969 240.949219 216.953125 C 241.695312 217.238281 248.679688 217.636719 249.253906 218.09375 C 249.824219 218.546875 250.917969 220.351562 250.511719 220.644531 C 250.113281 220.941406 238.546875 220.644531 238.546875 220.644531 C 238.546875 220.644531 216.21875 201.230469 215.074219 199.523438 C 213.929688 197.8125 221.140625 188.867188 221.140625 188.867188 "/>
<path style=" stroke:none;fill-rule:nonzero;fill:rgb(96.469116%,50.979614%,21.179199%);fill-opacity:1;" d="M 226.582031 145.253906 C 226.582031 145.253906 214.480469 139.082031 198.316406 152.980469 C 182.152344 166.878906 161.871094 202.339844 154.792969 224.351562 C 174.9375 223.851562 205.167969 227.789062 205.167969 227.789062 C 205.167969 227.789062 212.726562 199.386719 221.429688 190.273438 L 228.910156 192.25 C 228.910156 192.25 236.300781 175.136719 232.605469 159.613281 C 231.046875 151.234375 226.582031 145.253906 226.582031 145.253906 "/>
<path style=" stroke:none;fill-rule:nonzero;fill:rgb(81.568909%,43.139648%,17.248535%);fill-opacity:1;" d="M 221.429688 190.273438 C 221.429688 190.273438 227.726562 179.355469 227.785156 173.089844 C 224.921875 177.988281 218.738281 178.898438 218.566406 178.671875 C 218.394531 178.445312 219.425781 171.265625 219.425781 171.265625 C 219.425781 171.265625 215.703125 183.003906 215.472656 183.117188 C 215.242188 183.230469 214.441406 182.375 214.441406 182.375 L 207.230469 185.835938 L 200.359375 172.234375 L 199.445312 171.265625 L 206.886719 156.285156 C 206.886719 156.285156 200.015625 160.613281 195.722656 175.652344 C 191.425781 190.691406 194.234375 197.074219 193.433594 198.78125 C 192.628906 200.488281 187.878906 209.660156 187.648438 209.945312 C 187.417969 210.230469 178.144531 202.597656 178.144531 203.792969 C 178.144531 204.988281 181.339844 222.589844 181.289062 223.046875 C 181.234375 223.503906 206.65625 224.351562 206.65625 224.351562 C 206.65625 224.351562 216.734375 196.292969 221.429688 190.273438 "/>
<g clip-path="url(#clip1)" clip-rule="nonzero">
<path style=" stroke:none;fill-rule:nonzero;fill:rgb(17.248535%,37.249756%,43.919373%);fill-opacity:1;" d="M 38.03125 257.507812 C 38.03125 257.507812 43.960938 238.03125 45.109375 236.738281 C 46.253906 235.449219 68.007812 234.539062 68.007812 234.539062 C 68.007812 234.539062 319.144531 242.566406 320.226562 242.742188 C 321.308594 242.914062 324.671875 257.761719 324.539062 258.765625 C 324.40625 259.769531 257.324219 258.765625 257.324219 258.765625 L 38.03125 257.507812 "/>
</g>
<g clip-path="url(#clip2)" clip-rule="nonzero">
<path style=" stroke:none;fill-rule:nonzero;fill:rgb(21.958923%,48.239136%,56.079102%);fill-opacity:1;" d="M 322.113281 262.867188 L 40.242188 262.867188 C 38.910156 262.867188 37.816406 261.78125 37.816406 260.457031 L 37.816406 257.078125 C 37.816406 255.75 38.910156 254.664062 40.242188 254.664062 L 322.113281 254.664062 C 323.449219 254.664062 324.539062 255.75 324.539062 257.078125 L 324.539062 260.457031 C 324.539062 261.78125 323.449219 262.867188 322.113281 262.867188 "/>
</g>
<path style=" stroke:none;fill-rule:nonzero;fill:rgb(21.958923%,48.239136%,56.079102%);fill-opacity:1;" d="M 284.425781 238.542969 C 284.425781 238.542969 272.035156 242.929688 273.164062 247.910156 C 274.289062 252.898438 319.410156 251.417969 321.296875 248.515625 C 323.1875 245.609375 319.867188 237.917969 317.289062 235.753906 C 314.710938 233.585938 302.058594 233.585938 302.058594 233.585938 L 284.425781 238.542969 "/>
<path style=" stroke:none;fill-rule:nonzero;fill:rgb(17.248535%,37.249756%,43.919373%);fill-opacity:1;" d="M 273.316406 248.246094 C 273.316406 248.246094 272.289062 246.40625 275.78125 244.410156 C 279.269531 242.417969 307.441406 242.25 309.789062 239.855469 C 312.132812 237.460938 309.683594 233.941406 309.683594 233.941406 C 309.683594 233.941406 288.144531 230.023438 278.699219 233.941406 C 269.25 237.859375 267.992188 248.269531 273.316406 248.246094 "/>
<path style=" stroke:none;fill-rule:nonzero;fill:rgb(97.24884%,62.348938%,47.839355%);fill-opacity:1;" d="M 48.085938 239.96875 C 48.085938 239.96875 43.675781 239.824219 43.675781 239.054688 C 43.675781 238.289062 45.480469 238.089844 45.480469 238.089844 C 45.480469 238.089844 45.195312 236.664062 45.882812 236.292969 C 46.570312 235.921875 47.371094 236.292969 47.371094 236.292969 C 47.371094 236.292969 47.828125 234.5 48.371094 234.300781 C 48.914062 234.101562 49.402344 234.613281 49.402344 234.613281 C 49.402344 234.613281 53.238281 233.730469 56.617188 231.335938 C 59.992188 228.945312 67.152344 224.671875 69.46875 226.011719 C 71.789062 227.351562 75.109375 231.480469 78.316406 231.480469 C 81.519531 231.480469 105.222656 226.011719 115.355469 226.46875 C 125.492188 226.921875 128.355469 230.398438 130.414062 231.082031 C 132.476562 231.765625 139.117188 229.144531 139.117188 229.144531 L 139.460938 239.167969 L 48.085938 239.96875 "/>
<path style=" stroke:none;fill-rule:nonzero;fill:rgb(83.529663%,54.119873%,41.178894%);fill-opacity:1;" d="M 139.175781 234.101562 C 139.175781 234.101562 130.472656 235.980469 129.269531 235.355469 C 128.066406 234.726562 124.691406 230 116.042969 230.054688 C 107.398438 230.113281 78.601562 235.46875 76.941406 235.125 C 75.28125 234.785156 69.441406 229.488281 65.660156 229.714844 C 61.882812 229.941406 47.914062 239.796875 48.085938 239.96875 C 48.257812 240.140625 54.785156 241.515625 54.785156 241.515625 L 141.40625 241.515625 L 139.175781 234.101562 "/>
<path style=" stroke:none;fill-rule:nonzero;fill:rgb(97.24884%,62.348938%,47.839355%);fill-opacity:1;" d="M 139.460938 250.5625 L 124.917969 249.273438 C 124.917969 249.273438 84.726562 248.171875 74.878906 247.144531 C 66.0625 248.058594 42.476562 249.425781 42.246094 247.714844 C 42.015625 246.007812 44.363281 246.007812 44.363281 246.007812 C 44.363281 246.007812 43.105469 245.835938 43.449219 245.09375 C 43.789062 244.355469 44.308594 244.125 44.308594 244.125 C 44.308594 244.125 43.90625 243.613281 44.308594 243.214844 C 44.707031 242.816406 50.777344 240.878906 50.777344 240.878906 C 50.777344 240.878906 66.464844 231.136719 69.269531 232.621094 C 72.074219 234.101562 74.992188 236.894531 75.164062 237.007812 C 75.335938 237.121094 110.910156 231.195312 119.003906 233.320312 C 127.09375 235.449219 127.476562 237.347656 129.230469 237.726562 C 130.988281 238.105469 139.460938 237.324219 139.460938 237.324219 L 139.460938 250.5625 "/>
<path style=" stroke:none;fill-rule:nonzero;fill:rgb(94.119263%,95.689392%,63.139343%);fill-opacity:1;" d="M 197.324219 222.234375 C 197.324219 222.234375 199.347656 219.800781 198.316406 219.003906 C 197.285156 218.207031 188.46875 218.320312 179.421875 217.75 C 170.378906 217.179688 162.589844 219.574219 152.285156 222.878906 C 141.980469 226.183594 137.285156 224.222656 137.054688 228.109375 C 136.828125 231.992188 137.859375 250.449219 138.316406 251.019531 C 138.773438 251.589844 137.859375 258.425781 138.429688 259.449219 C 139.003906 260.476562 154.460938 259.90625 163.277344 260.476562 C 172.09375 261.046875 195.683594 260.246094 195.796875 259.566406 C 195.914062 258.878906 195.796875 251.703125 195.796875 251.703125 L 197.324219 222.234375 "/>
<path style=" stroke:none;fill-rule:nonzero;fill:rgb(81.568909%,79.60968%,55.688477%);fill-opacity:1;" d="M 195.796875 242.742188 C 195.796875 242.742188 169.84375 239.304688 161.902344 241.515625 C 153.964844 243.726562 139.15625 249.347656 139.460938 250.5625 C 139.765625 251.777344 195.796875 249.804688 195.796875 249.804688 L 195.796875 242.742188 "/>
<path style=" stroke:none;fill-rule:nonzero;fill:rgb(81.568909%,79.60968%,55.688477%);fill-opacity:1;" d="M 138.925781 254.363281 C 139.203125 254.371094 182.4375 253.878906 187.78125 254.003906 C 193.125 254.132812 195.769531 254.183594 195.796875 254.003906 C 195.828125 253.828125 195.796875 253.253906 195.796875 253.253906 L 194.726562 249.273438 C 194.726562 249.273438 140.605469 250.105469 139.460938 250.5625 C 138.316406 251.019531 138.238281 254.339844 138.925781 254.363281 "/>
<path style=" stroke:none;fill-rule:nonzero;fill:rgb(66.268921%,62.348938%,47.059631%);fill-opacity:1;" d="M 195.179688 250.960938 C 195.179688 250.960938 141.21875 251.476562 140.375 251.398438 C 139.535156 251.324219 142.894531 250.335938 159.917969 248.515625 C 176.941406 246.691406 196.472656 250.519531 195.179688 250.960938 "/>
<path style=" stroke:none;fill-rule:nonzero;fill:rgb(97.24884%,62.348938%,47.839355%);fill-opacity:1;" d="M 286.542969 238.601562 C 286.371094 238.601562 276.066406 242.191406 275.089844 243.445312 C 274.117188 244.695312 273.433594 252.957031 263.699219 253.183594 C 253.964844 253.414062 220.1875 252.84375 213.773438 253.183594 C 207.363281 253.527344 177.589844 252.953125 171.179688 253.238281 C 164.765625 253.527344 154.402344 254.777344 153.886719 253.296875 C 153.375 251.816406 155.796875 251.628906 155.796875 251.628906 C 155.796875 251.628906 154.042969 251.816406 154.535156 250.90625 C 155.03125 249.992188 156.714844 249.917969 156.714844 249.917969 C 156.714844 249.917969 154.84375 249.804688 155.492188 249.007812 C 156.140625 248.207031 157.820312 247.867188 157.820312 247.867188 C 157.820312 247.867188 156.636719 247.5625 157.4375 246.878906 C 158.238281 246.199219 195.796875 242.742188 195.796875 242.742188 L 197.324219 222.234375 C 197.324219 222.234375 216.179688 224.890625 224.578125 223.449219 C 232.972656 222.003906 249.308594 219.195312 259.613281 221.550781 C 269.921875 223.902344 274.808594 229.753906 276.179688 230.207031 C 277.554688 230.664062 282.820312 228.765625 282.820312 228.765625 L 286.542969 238.601562 "/>
<path style=" stroke:none;fill-rule:nonzero;fill:rgb(52.938843%,19.219971%,19.219971%);fill-opacity:1;" d="M 281.363281 227.378906 C 281.363281 227.378906 280.15625 228.035156 280.332031 228.886719 C 280.503906 229.742188 281.820312 230.398438 281.820312 230.398438 C 281.820312 230.398438 279.46875 232.589844 280.3125 233.191406 C 281.160156 233.785156 282.707031 233.617188 282.707031 233.617188 C 282.707031 233.617188 280.53125 236.09375 281.820312 236.835938 C 283.105469 237.574219 283.851562 237.546875 283.851562 237.546875 C 283.851562 237.546875 281.992188 239.738281 283.851562 240.480469 C 285.710938 241.222656 303.777344 241.164062 310.417969 233.132812 C 317.058594 225.101562 314.765625 219.121094 313.738281 216.613281 C 312.707031 214.105469 312.648438 217.066406 312.648438 217.066406 C 312.648438 217.066406 312.535156 214.335938 310.988281 212.855469 C 309.445312 211.371094 309.214844 213.480469 309.214844 213.480469 C 309.214844 213.480469 305.835938 207.78125 298.738281 206.925781 C 297.550781 206.816406 298.335938 210.175781 298.335938 210.175781 C 298.335938 210.175781 290.609375 207.269531 289.578125 208.410156 C 288.546875 209.546875 291.296875 212.28125 291.296875 212.28125 C 291.296875 212.28125 286.945312 213.933594 284.652344 217.582031 C 282.363281 221.226562 281.363281 227.378906 281.363281 227.378906 "/>
<path style=" stroke:none;fill-rule:nonzero;fill:rgb(83.529663%,54.119873%,41.178894%);fill-opacity:1;" d="M 195.796875 242.742188 C 195.796875 242.742188 231.753906 240.789062 237.25 240.777344 C 242.746094 240.765625 259.003906 241.273438 260.035156 241.757812 C 261.066406 242.246094 257.285156 239.738281 250.417969 238.941406 C 243.546875 238.144531 199.578125 240.996094 198.660156 240.308594 C 197.742188 239.628906 196.96875 227 196.96875 227 L 195.796875 242.742188 "/>
<path style=" stroke:none;fill-rule:nonzero;fill:rgb(83.529663%,54.119873%,41.178894%);fill-opacity:1;" d="M 198.316406 227 C 198.316406 227 215.265625 229.03125 222.25 227.890625 C 229.234375 226.753906 239.652344 223.449219 247.09375 224.589844 C 247.09375 224.589844 236.449219 226.753906 225.796875 230.625 C 215.148438 234.5 199.230469 228.15625 198.316406 227 "/>
<path style=" stroke:none;fill-rule:nonzero;fill:rgb(81.568909%,79.60968%,55.688477%);fill-opacity:1;" d="M 140.300781 233.320312 C 140.300781 233.320312 155.796875 229.273438 158.085938 228.109375 C 160.378906 226.941406 162.609375 221.636719 160.703125 222.25 C 158.792969 222.867188 146.253906 227.300781 146.484375 228.109375 C 146.714844 228.917969 149.460938 228.796875 149.460938 228.796875 C 149.460938 228.796875 136.789062 233.09375 140.300781 233.320312 "/>
<path style=" stroke:none;fill-rule:nonzero;fill:rgb(83.529663%,54.119873%,41.178894%);fill-opacity:1;" d="M 224 223.539062 C 224 223.539062 224.898438 226.917969 227.269531 228.109375 C 229.640625 229.296875 240.457031 228.382812 241.175781 227.480469 C 241.898438 226.578125 229.613281 222.335938 229.613281 222.335938 L 224 223.539062 "/>
<path style=" stroke:none;fill-rule:nonzero;fill:rgb(98.039246%,75.289917%,56.079102%);fill-opacity:1;" d="M 200.359375 172.234375 C 200.359375 172.234375 187.535156 201.285156 189.9375 203.90625 C 192.34375 206.527344 228.320312 223.636719 229.0625 224.832031 C 229.804688 226.027344 236.484375 227.945312 237.917969 227.777344 C 239.347656 227.605469 240.980469 227.917969 241.753906 227.121094 C 242.527344 226.324219 242.441406 225.980469 242.441406 225.980469 C 242.441406 225.980469 243.234375 225.953125 243.496094 225.398438 C 243.757812 224.84375 243.757812 224.351562 243.757812 224.351562 C 243.757812 224.351562 244.472656 224.1875 244.558594 223.84375 C 244.644531 223.503906 244.585938 222.960938 244.585938 222.960938 C 244.585938 222.960938 245.164062 222.171875 245.132812 221.480469 C 245.097656 220.792969 242.582031 218.0625 241.351562 217.40625 C 240.121094 216.753906 236.457031 217.753906 236.3125 217.667969 C 236.171875 217.582031 207.230469 199.238281 207.230469 198.324219 C 207.230469 197.414062 214.441406 182.375 214.441406 182.375 L 200.359375 172.234375 "/>
<path style=" stroke:none;fill-rule:nonzero;fill:rgb(98.039246%,75.289917%,56.079102%);fill-opacity:1;" d="M 264.824219 153.320312 C 264.824219 153.320312 269.003906 145.839844 268.375 134.941406 C 267.746094 124.042969 259.617188 111.625 245.761719 114.984375 C 231.90625 118.347656 234.996094 141.476562 234.996094 141.476562 C 234.996094 141.476562 226.007812 145.519531 224.578125 145.574219 C 224.578125 155.03125 230.53125 161.125 230.53125 161.125 C 230.53125 161.125 239.234375 154.476562 241.921875 154.753906 C 244.613281 155.03125 264.824219 153.320312 264.824219 153.320312 "/>
<path style=" stroke:none;fill-rule:nonzero;fill:rgb(95.689392%,44.709778%,36.079407%);fill-opacity:1;" d="M 244.816406 134.011719 C 244.816406 134.011719 242.039062 128.855469 239.347656 130.195312 C 236.65625 131.53125 236.574219 137.714844 238.144531 140.222656 C 239.71875 142.726562 242.726562 140.851562 242.726562 140.851562 L 244.816406 134.011719 "/>
<path style=" stroke:none;fill-rule:nonzero;fill:rgb(69.018555%,33.329773%,27.059937%);fill-opacity:1;" d="M 239.359375 133.207031 C 239.359375 133.207031 238.242188 135.820312 239.359375 138.222656 C 240.480469 140.625 242.097656 138.867188 242.121094 137.601562 C 242.140625 136.335938 240.914062 136.035156 241.171875 134.941406 C 241.429688 133.847656 241.839844 134.109375 241.515625 133.207031 C 241.191406 132.304688 240.117188 131.449219 239.359375 133.207031 "/>
<path style=" stroke:none;fill-rule:nonzero;fill:rgb(38.038635%,19.999695%,19.999695%);fill-opacity:1;" d="M 243.296875 134.464844 C 243.289062 134.570312 239.824219 136.878906 241.121094 140.902344 C 237.078125 147.664062 240.179688 155.183594 242.0625 156.851562 C 243.945312 158.523438 244.636719 162.171875 252.039062 162.171875 C 259.445312 162.171875 265.09375 156.246094 265.09375 153.058594 C 265.09375 149.867188 259.675781 147.132812 256.542969 146.753906 C 253.414062 146.375 247.304688 147.207031 247.304688 147.207031 C 247.304688 147.207031 247.804688 145.6875 247.496094 145.382812 C 247.191406 145.082031 246.125 144.816406 246.125 144.816406 C 246.125 144.816406 246.808594 141.476562 246.351562 141.09375 C 245.894531 140.714844 245.664062 140.640625 245.664062 140.523438 C 245.664062 140.410156 246.773438 135.015625 246.464844 134.296875 C 246.160156 133.574219 243.566406 132.171875 243.296875 134.464844 "/>
<path style=" stroke:none;fill-rule:nonzero;fill:rgb(100%,100%,100%);fill-opacity:1;" d="M 254.835938 155.1875 C 254.835938 155.1875 254.011719 156.902344 252.117188 156.453125 C 250.226562 156 249.210938 153.234375 250.09375 153 C 250.976562 152.761719 255.136719 154.742188 254.835938 155.1875 "/>
<path style=" stroke:none;fill-rule:nonzero;fill:rgb(1.568604%,2.349854%,2.349854%);fill-opacity:1;" d="M 257.609375 141.410156 C 257.050781 140.863281 256.117188 140.800781 255.40625 140.492188 C 254.605469 140.140625 253.921875 139.707031 253.199219 139.21875 C 252.824219 138.96875 252.46875 139.507812 252.738281 139.8125 C 253.351562 140.503906 254.078125 141.21875 254.859375 141.722656 C 255.535156 142.15625 256.515625 142.761719 257.324219 142.464844 C 257.761719 142.308594 257.96875 141.765625 257.609375 141.410156 "/>
<path style=" stroke:none;fill-rule:nonzero;fill:rgb(1.568604%,2.349854%,2.349854%);fill-opacity:1;" d="M 267.46875 144.9375 C 266.71875 144.6875 265.867188 144.503906 265.089844 144.339844 C 264.574219 144.230469 264.253906 144.910156 264.726562 145.199219 C 265.480469 145.65625 266.304688 145.867188 267.136719 146.148438 C 267.90625 146.402344 268.234375 145.195312 267.46875 144.9375 "/>
<path style=" stroke:none;fill-rule:nonzero;fill:rgb(38.038635%,19.999695%,19.999695%);fill-opacity:1;" d="M 254.851562 132.53125 C 254.851562 132.53125 252.832031 134.351562 254.207031 135.464844 C 255.578125 136.574219 259.871094 138.3125 260.90625 136.746094 C 261.933594 135.179688 261.539062 132.246094 254.851562 132.53125 "/>
<path style=" stroke:none;fill-rule:nonzero;fill:rgb(38.038635%,19.999695%,19.999695%);fill-opacity:1;" d="M 266.199219 137.230469 C 266.199219 137.230469 264.796875 139.480469 266.199219 140.675781 C 267.601562 141.871094 270.035156 142.46875 270.636719 140.222656 C 271.238281 137.96875 266.945312 135.777344 266.199219 137.230469 "/>
<path style=" stroke:none;fill-rule:nonzero;fill:rgb(81.568909%,43.139648%,17.248535%);fill-opacity:1;" d="M 224.578125 153.589844 C 225.121094 153.679688 227.457031 160.652344 229.214844 162.171875 C 230.96875 163.691406 232.34375 161.125 232.34375 161.125 C 232.34375 161.125 231.753906 168.703125 228.460938 168.398438 C 225.167969 168.09375 222.304688 153.207031 224.578125 153.589844 "/>
</g>
</svg>
