<?xml version="1.0" encoding="UTF-8"?>
<svg xmlns="http://www.w3.org/2000/svg" xmlns:xlink="http://www.w3.org/1999/xlink" width="375pt" height="374.999991pt" viewBox="0 0 375 374.999991" version="1.2">
<defs>
<clipPath id="clip1">
  <path d="M 26.167969 33.207031 L 348.667969 33.207031 L 348.667969 341.457031 L 26.167969 341.457031 Z M 26.167969 33.207031 "/>
</clipPath>
</defs>
<g id="surface1">
<g clip-path="url(#clip1)" clip-rule="nonzero">
<path style=" stroke:none;fill-rule:nonzero;fill:rgb(100%,91.369629%,93.728638%);fill-opacity:1;" d="M 213.261719 261.410156 C 213.261719 261.140625 213.058594 260.871094 212.789062 260.804688 C 183.640625 250.148438 164.070312 222.164062 164.070312 191.144531 C 164.070312 160.121094 183.640625 132.136719 212.789062 121.480469 C 213.058594 121.414062 213.261719 121.144531 213.261719 120.875 C 213.261719 120.605469 213.058594 120.335938 212.789062 120.269531 C 204.488281 117.234375 195.71875 115.683594 186.8125 115.683594 C 145.109375 115.683594 111.238281 149.535156 111.238281 191.210938 C 111.238281 232.886719 145.109375 266.738281 186.8125 266.738281 C 195.71875 266.738281 204.488281 265.1875 212.789062 262.152344 C 213.058594 261.953125 213.261719 261.683594 213.261719 261.410156 Z M 186.8125 265.253906 C 145.851562 265.253906 112.585938 231.941406 112.585938 191.074219 C 112.585938 150.140625 145.851562 116.898438 186.8125 116.898438 C 194.976562 116.898438 202.9375 118.179688 210.5625 120.808594 C 181.886719 132.136719 162.722656 160.121094 162.722656 191.074219 C 162.722656 222.027344 181.886719 250.082031 210.5625 261.34375 C 202.9375 263.972656 194.976562 265.253906 186.8125 265.253906 Z M 211.035156 190.199219 C 211.101562 190.535156 211.371094 190.804688 211.710938 190.804688 C 212.046875 190.804688 212.316406 190.535156 212.382812 190.199219 L 213.867188 177.117188 L 225.203125 175.429688 C 225.542969 175.363281 225.8125 175.09375 225.8125 174.757812 C 225.8125 174.417969 225.542969 174.148438 225.203125 174.082031 L 213.867188 172.394531 L 212.382812 159.382812 C 212.316406 159.042969 212.046875 158.773438 211.710938 158.773438 C 211.371094 158.773438 211.101562 159.042969 211.035156 159.382812 L 209.550781 172.394531 L 198.214844 174.082031 C 197.878906 174.148438 197.605469 174.417969 197.605469 174.757812 C 197.605469 175.09375 197.878906 175.363281 198.214844 175.429688 L 209.550781 177.050781 Z M 210.292969 173.746094 C 210.5625 173.675781 210.832031 173.476562 210.832031 173.136719 L 211.710938 165.585938 L 212.585938 173.136719 C 212.65625 173.476562 212.855469 173.675781 213.125 173.746094 L 220.414062 174.824219 L 213.125 175.902344 C 212.855469 175.96875 212.585938 176.171875 212.585938 176.511719 L 211.710938 184.128906 L 210.832031 176.511719 C 210.765625 176.171875 210.5625 175.96875 210.226562 175.902344 L 202.9375 174.824219 Z M 230.871094 234.371094 C 230.941406 234.707031 231.210938 234.976562 231.546875 234.976562 C 231.886719 234.976562 232.15625 234.707031 232.222656 234.371094 L 233.101562 226.277344 L 240.050781 225.265625 C 240.386719 225.199219 240.65625 224.929688 240.65625 224.59375 C 240.65625 224.253906 240.386719 223.984375 240.050781 223.917969 L 233.101562 222.90625 L 232.222656 214.882812 C 232.15625 214.542969 231.886719 214.273438 231.546875 214.273438 C 231.210938 214.273438 230.941406 214.542969 230.871094 214.882812 L 229.996094 222.90625 L 223.046875 223.984375 C 222.707031 224.050781 222.4375 224.320312 222.4375 224.660156 C 222.4375 224.996094 222.707031 225.265625 223.046875 225.332031 L 229.996094 226.34375 Z M 230.671875 224.1875 C 230.941406 224.121094 231.210938 223.917969 231.210938 223.582031 L 231.480469 221.019531 L 231.75 223.582031 C 231.816406 223.917969 232.019531 224.121094 232.289062 224.1875 L 235.257812 224.59375 L 232.289062 224.996094 C 232.019531 225.0625 231.75 225.265625 231.75 225.601562 L 231.480469 228.234375 L 231.210938 225.601562 C 231.144531 225.265625 230.941406 225.0625 230.601562 224.996094 L 227.632812 224.59375 Z M 199.96875 201.527344 L 196.59375 204.832031 L 198.484375 209.148438 L 194.300781 206.921875 L 190.792969 210.09375 L 191.601562 205.441406 L 187.554688 203.078125 L 192.210938 202.40625 L 193.222656 197.820312 L 195.3125 202.066406 Z M 244.503906 182.308594 L 241.332031 184.128906 L 244.503906 185.949219 C 244.839844 186.152344 244.90625 186.558594 244.773438 186.894531 C 244.636719 187.097656 244.4375 187.230469 244.164062 187.230469 C 244.03125 187.230469 243.964844 187.230469 243.828125 187.164062 L 240.65625 185.34375 L 240.65625 189.054688 C 240.65625 189.457031 240.386719 189.726562 239.980469 189.726562 C 239.578125 189.726562 239.308594 189.457031 239.308594 189.054688 L 239.308594 185.34375 L 236.136719 187.164062 C 236 187.230469 235.933594 187.230469 235.796875 187.230469 C 235.597656 187.230469 235.328125 187.097656 235.191406 186.894531 C 234.988281 186.558594 235.125 186.152344 235.460938 185.949219 L 238.632812 184.128906 L 235.460938 182.308594 C 235.125 182.105469 235.054688 181.703125 235.191406 181.367188 C 235.394531 181.027344 235.796875 180.960938 236.136719 181.09375 L 239.308594 182.917969 L 239.308594 179.207031 C 239.308594 178.804688 239.578125 178.53125 239.980469 178.53125 C 240.386719 178.53125 240.65625 178.804688 240.65625 179.207031 L 240.65625 182.917969 L 243.828125 181.09375 C 244.164062 180.894531 244.570312 181.027344 244.773438 181.367188 C 244.976562 181.703125 244.839844 182.175781 244.503906 182.308594 Z M 205.636719 138.410156 C 205.636719 136.65625 204.21875 135.238281 202.464844 135.238281 C 200.710938 135.238281 199.292969 136.65625 199.292969 138.410156 C 199.292969 140.160156 200.710938 141.578125 202.464844 141.578125 C 204.21875 141.578125 205.636719 140.160156 205.636719 138.410156 Z M 200.644531 138.410156 C 200.644531 137.398438 201.453125 136.585938 202.464844 136.585938 C 203.476562 136.585938 204.289062 137.398438 204.289062 138.410156 C 204.289062 139.421875 203.476562 140.230469 202.464844 140.230469 C 201.453125 140.230469 200.644531 139.421875 200.644531 138.410156 Z M 237.890625 153.582031 C 239.039062 153.582031 239.980469 154.527344 239.980469 155.671875 C 239.980469 156.820312 239.039062 157.761719 237.890625 157.761719 C 236.742188 157.761719 235.796875 156.820312 235.796875 155.671875 C 235.796875 154.527344 236.675781 153.582031 237.890625 153.582031 Z M 201.789062 240.4375 C 201.789062 242.460938 203.476562 244.148438 205.503906 244.148438 C 207.527344 244.148438 209.214844 242.460938 209.214844 240.4375 C 209.214844 238.417969 207.527344 236.730469 205.503906 236.730469 C 203.476562 236.730469 201.789062 238.417969 201.789062 240.4375 Z M 207.863281 240.4375 C 207.863281 241.71875 206.785156 242.800781 205.503906 242.800781 C 204.21875 242.800781 203.140625 241.71875 203.140625 240.4375 C 203.140625 239.15625 204.21875 238.078125 205.503906 238.078125 C 206.785156 238.078125 207.863281 239.15625 207.863281 240.4375 Z M 173.449219 48.785156 C 175.878906 48.785156 177.835938 46.832031 177.835938 44.402344 C 177.835938 41.976562 175.878906 40.019531 173.449219 40.019531 C 171.023438 40.019531 169.066406 41.976562 169.066406 44.402344 C 169.066406 46.832031 171.089844 48.785156 173.449219 48.785156 Z M 173.449219 41.367188 C 175.136719 41.367188 176.488281 42.71875 176.488281 44.402344 C 176.488281 46.089844 175.136719 47.4375 173.449219 47.4375 C 171.765625 47.4375 170.414062 46.089844 170.414062 44.402344 C 170.480469 42.71875 171.832031 41.367188 173.449219 41.367188 Z M 285.054688 79.875 C 287.351562 79.875 289.238281 77.984375 289.238281 75.691406 C 289.238281 73.398438 287.351562 71.511719 285.054688 71.511719 C 282.761719 71.511719 280.871094 73.398438 280.871094 75.691406 C 280.804688 77.984375 282.695312 79.875 285.054688 79.875 Z M 285.054688 72.859375 C 286.609375 72.859375 287.890625 74.140625 287.890625 75.691406 C 287.890625 77.246094 286.609375 78.527344 285.054688 78.527344 C 283.503906 78.527344 282.222656 77.246094 282.222656 75.691406 C 282.15625 74.140625 283.4375 72.859375 285.054688 72.859375 Z M 319.671875 242.800781 C 317.378906 242.800781 315.488281 244.6875 315.488281 246.980469 C 315.488281 249.273438 317.378906 251.160156 319.671875 251.160156 C 321.964844 251.160156 323.855469 249.273438 323.855469 246.980469 C 323.921875 244.6875 322.03125 242.800781 319.671875 242.800781 Z M 319.671875 249.878906 C 318.121094 249.878906 316.835938 248.597656 316.835938 247.046875 C 316.835938 245.496094 318.121094 244.214844 319.671875 244.214844 C 321.222656 244.214844 322.503906 245.496094 322.503906 247.046875 C 322.574219 248.597656 321.289062 249.878906 319.671875 249.878906 Z M 260.023438 305.042969 C 257.726562 305.042969 255.839844 306.929688 255.839844 309.222656 C 255.839844 311.515625 257.726562 313.40625 260.023438 313.40625 C 262.316406 313.40625 264.207031 311.515625 264.207031 309.222656 C 264.207031 306.929688 262.316406 305.042969 260.023438 305.042969 Z M 260.023438 312.125 C 258.46875 312.125 257.1875 310.84375 257.1875 309.292969 C 257.1875 307.742188 258.46875 306.460938 260.023438 306.460938 C 261.574219 306.460938 262.855469 307.742188 262.855469 309.292969 C 262.855469 310.84375 261.574219 312.125 260.023438 312.125 Z M 110.765625 301.199219 C 108.335938 301.199219 106.378906 303.15625 106.378906 305.582031 C 106.378906 308.011719 108.335938 309.964844 110.765625 309.964844 C 113.195312 309.964844 115.152344 308.011719 115.152344 305.582031 C 115.152344 303.15625 113.195312 301.199219 110.765625 301.199219 Z M 110.765625 308.617188 C 109.078125 308.617188 107.730469 307.269531 107.730469 305.582031 C 107.730469 303.898438 109.078125 302.546875 110.765625 302.546875 C 112.453125 302.546875 113.800781 303.898438 113.800781 305.582031 C 113.800781 307.199219 112.453125 308.617188 110.765625 308.617188 Z M 52.464844 255.476562 C 52.464844 257.835938 54.421875 259.792969 56.785156 259.792969 C 59.148438 259.792969 61.105469 257.835938 61.105469 255.476562 C 61.105469 253.117188 59.148438 251.160156 56.785156 251.160156 C 54.421875 251.160156 52.464844 253.117188 52.464844 255.476562 Z M 59.753906 255.476562 C 59.753906 257.097656 58.40625 258.445312 56.785156 258.445312 C 55.164062 258.445312 53.816406 257.097656 53.816406 255.476562 C 53.816406 253.859375 55.164062 252.511719 56.785156 252.511719 C 58.40625 252.511719 59.753906 253.859375 59.753906 255.476562 Z M 59.417969 122.15625 C 61.238281 122.15625 62.722656 120.671875 62.722656 118.851562 C 62.722656 117.03125 61.238281 115.546875 59.417969 115.546875 C 57.59375 115.546875 56.109375 117.03125 56.109375 118.851562 C 56.109375 120.671875 57.59375 122.15625 59.417969 122.15625 Z M 59.417969 116.898438 C 60.496094 116.898438 61.375 117.773438 61.375 118.851562 C 61.375 119.929688 60.496094 120.808594 59.417969 120.808594 C 58.335938 120.808594 57.460938 119.929688 57.460938 118.851562 C 57.460938 117.773438 58.335938 116.898438 59.417969 116.898438 Z M 185.933594 73.871094 L 185.933594 63.621094 C 185.933594 63.21875 186.203125 62.949219 186.609375 62.949219 C 187.011719 62.949219 187.285156 63.21875 187.285156 63.621094 L 187.285156 73.871094 C 187.285156 74.277344 187.011719 74.546875 186.609375 74.546875 C 186.203125 74.546875 185.933594 74.210938 185.933594 73.871094 Z M 185.933594 107.457031 L 185.933594 80.078125 C 185.933594 79.671875 186.203125 79.402344 186.609375 79.402344 C 187.011719 79.402344 187.285156 79.671875 187.285156 80.078125 L 187.285156 107.457031 C 187.285156 107.859375 187.011719 108.128906 186.609375 108.128906 C 186.203125 108.128906 185.933594 107.859375 185.933594 107.457031 Z M 195.582031 76.972656 L 195.851562 73.804688 C 195.851562 73.398438 196.191406 73.128906 196.59375 73.199219 C 196.933594 73.199219 197.269531 73.535156 197.203125 73.941406 L 196.933594 77.109375 C 196.933594 77.445312 196.59375 77.714844 196.257812 77.714844 C 196.257812 77.714844 196.191406 77.714844 196.191406 77.714844 C 195.851562 77.714844 195.582031 77.378906 195.582031 76.972656 Z M 193.019531 107.726562 L 194.4375 90.796875 C 194.4375 90.394531 194.773438 90.125 195.179688 90.191406 C 195.582031 90.191406 195.851562 90.527344 195.785156 90.933594 L 194.367188 107.859375 C 194.367188 108.199219 194.03125 108.46875 193.695312 108.46875 C 193.695312 108.46875 193.625 108.46875 193.625 108.46875 C 193.289062 108.398438 193.019531 108.0625 193.019531 107.726562 Z M 210.496094 70.5 L 212.992188 59.574219 C 213.058594 59.238281 213.464844 58.96875 213.800781 59.035156 C 214.140625 59.105469 214.410156 59.507812 214.339844 59.84375 L 211.84375 70.769531 C 211.777344 71.109375 211.507812 71.308594 211.171875 71.308594 C 211.101562 71.308594 211.101562 71.308594 211.035156 71.308594 C 210.628906 71.242188 210.429688 70.90625 210.496094 70.5 Z M 208.742188 78.390625 L 209.414062 75.355469 C 209.484375 75.019531 209.886719 74.75 210.226562 74.816406 C 210.5625 74.882812 210.832031 75.289062 210.765625 75.625 L 210.089844 78.660156 C 210.023438 78.996094 209.753906 79.199219 209.414062 79.199219 C 209.347656 79.199219 209.347656 79.199219 209.28125 79.199219 C 208.875 79.066406 208.605469 78.726562 208.742188 78.390625 Z M 206.3125 88.84375 L 207.527344 83.449219 C 207.59375 83.109375 208 82.839844 208.335938 82.910156 C 208.671875 82.976562 208.941406 83.378906 208.875 83.71875 L 207.660156 89.113281 C 207.59375 89.449219 207.324219 89.652344 206.988281 89.652344 C 206.917969 89.652344 206.917969 89.652344 206.851562 89.652344 C 206.445312 89.585938 206.246094 89.179688 206.3125 88.84375 Z M 201.789062 108.804688 L 204.761719 95.652344 C 204.828125 95.316406 205.230469 95.046875 205.570312 95.113281 C 205.90625 95.183594 206.175781 95.585938 206.109375 95.925781 L 203.140625 109.074219 C 203.074219 109.410156 202.804688 109.613281 202.464844 109.613281 C 202.398438 109.613281 202.398438 109.613281 202.332031 109.613281 C 201.925781 109.546875 201.722656 109.207031 201.789062 108.804688 Z M 223.179688 63.417969 L 225.542969 55.125 C 225.675781 54.789062 226.015625 54.585938 226.351562 54.652344 C 226.691406 54.789062 226.890625 55.125 226.824219 55.460938 L 224.460938 63.757812 C 224.394531 64.027344 224.125 64.230469 223.789062 64.230469 C 223.71875 64.230469 223.652344 64.230469 223.585938 64.230469 C 223.316406 64.160156 223.113281 63.757812 223.179688 63.417969 Z M 217.648438 82.910156 L 221.089844 70.769531 C 221.222656 70.433594 221.5625 70.230469 221.898438 70.296875 C 222.234375 70.433594 222.4375 70.769531 222.371094 71.109375 L 218.929688 83.246094 C 218.863281 83.515625 218.59375 83.71875 218.253906 83.71875 C 218.1875 83.71875 218.121094 83.71875 218.050781 83.71875 C 217.714844 83.652344 217.511719 83.246094 217.648438 82.910156 Z M 209.6875 110.691406 L 215.691406 89.585938 C 215.824219 89.246094 216.164062 89.046875 216.5 89.113281 C 216.839844 89.246094 217.039062 89.585938 216.972656 89.921875 L 210.96875 111.03125 C 210.898438 111.300781 210.628906 111.5 210.292969 111.5 C 210.226562 111.5 210.15625 111.5 210.089844 111.5 C 209.820312 111.433594 209.617188 111.03125 209.6875 110.691406 Z M 242.679688 56.675781 L 248.550781 42.648438 C 248.6875 42.3125 249.089844 42.175781 249.429688 42.3125 C 249.765625 42.445312 249.902344 42.851562 249.765625 43.1875 L 243.894531 57.214844 C 243.761719 57.484375 243.558594 57.621094 243.289062 57.621094 C 243.222656 57.621094 243.085938 57.621094 243.019531 57.554688 C 242.679688 57.417969 242.546875 57.011719 242.679688 56.675781 Z M 239.511719 64.230469 L 240.523438 61.734375 C 240.65625 61.398438 241.0625 61.261719 241.398438 61.398438 C 241.738281 61.53125 241.871094 61.9375 241.738281 62.273438 L 240.722656 64.769531 C 240.589844 65.039062 240.386719 65.171875 240.117188 65.171875 C 240.050781 65.171875 239.914062 65.171875 239.847656 65.105469 C 239.511719 64.972656 239.375 64.632812 239.511719 64.230469 Z M 225.746094 97.136719 L 236.539062 71.308594 C 236.675781 70.972656 237.082031 70.835938 237.417969 70.972656 C 237.753906 71.109375 237.890625 71.511719 237.753906 71.847656 L 226.960938 97.675781 C 226.824219 97.945312 226.621094 98.082031 226.351562 98.082031 C 226.285156 98.082031 226.148438 98.082031 226.082031 98.015625 C 225.746094 97.878906 225.542969 97.476562 225.746094 97.136719 Z M 218.726562 113.863281 L 222.574219 104.691406 C 222.707031 104.351562 223.113281 104.21875 223.449219 104.351562 C 223.789062 104.488281 223.921875 104.894531 223.789062 105.230469 L 219.941406 114.402344 C 219.808594 114.671875 219.605469 114.804688 219.335938 114.804688 C 219.265625 114.804688 219.132812 114.804688 219.066406 114.738281 C 218.726562 114.605469 218.59375 114.199219 218.726562 113.863281 Z M 236.609375 99.835938 L 238.160156 97.070312 C 238.363281 96.734375 238.769531 96.664062 239.105469 96.800781 C 239.441406 97.003906 239.511719 97.40625 239.375 97.746094 L 237.824219 100.507812 C 237.6875 100.710938 237.484375 100.847656 237.214844 100.847656 C 237.082031 100.847656 237.011719 100.847656 236.878906 100.78125 C 236.539062 100.578125 236.40625 100.105469 236.609375 99.835938 Z M 235.054688 105.230469 L 227.632812 118.179688 C 227.5 118.378906 227.296875 118.515625 227.027344 118.515625 C 226.890625 118.515625 226.824219 118.515625 226.691406 118.449219 C 226.351562 118.246094 226.285156 117.839844 226.417969 117.503906 L 233.84375 104.554688 C 234.042969 104.21875 234.449219 104.152344 234.785156 104.285156 C 235.125 104.488281 235.257812 104.894531 235.054688 105.230469 Z M 254.085938 95.183594 C 253.746094 94.980469 253.679688 94.574219 253.882812 94.238281 L 259.144531 86.617188 C 259.347656 86.28125 259.753906 86.214844 260.089844 86.414062 C 260.425781 86.617188 260.496094 87.023438 260.292969 87.359375 L 255.03125 94.980469 C 254.894531 95.183594 254.691406 95.25 254.488281 95.25 C 254.355469 95.25 254.21875 95.25 254.085938 95.183594 Z M 250.035156 100.980469 C 250.375 101.183594 250.441406 101.589844 250.238281 101.925781 L 242.679688 112.851562 C 242.546875 113.050781 242.34375 113.121094 242.140625 113.121094 C 242.007812 113.121094 241.871094 113.050781 241.738281 112.984375 C 241.398438 112.78125 241.332031 112.378906 241.535156 112.042969 L 249.089844 101.117188 C 249.363281 100.847656 249.765625 100.78125 250.035156 100.980469 Z M 238.769531 117.300781 C 239.105469 117.503906 239.171875 117.90625 238.96875 118.246094 L 235.527344 123.167969 C 235.394531 123.371094 235.191406 123.4375 234.988281 123.4375 C 234.855469 123.4375 234.71875 123.371094 234.585938 123.304688 C 234.246094 123.101562 234.179688 122.695312 234.382812 122.359375 L 237.824219 117.4375 C 238.027344 117.167969 238.429688 117.097656 238.769531 117.300781 Z M 240.65625 127.214844 L 253.273438 112.917969 C 253.542969 112.648438 253.949219 112.582031 254.21875 112.851562 C 254.488281 113.121094 254.558594 113.523438 254.289062 113.792969 L 241.667969 128.089844 C 241.535156 128.226562 241.332031 128.292969 241.128906 128.292969 C 240.996094 128.292969 240.792969 128.226562 240.65625 128.160156 C 240.453125 127.957031 240.386719 127.550781 240.65625 127.214844 Z M 280.671875 104.351562 C 280.398438 104.082031 280.46875 103.679688 280.738281 103.410156 L 283.300781 101.050781 C 283.570312 100.78125 283.976562 100.847656 284.246094 101.117188 C 284.515625 101.386719 284.449219 101.789062 284.179688 102.0625 L 281.613281 104.421875 C 281.480469 104.554688 281.34375 104.625 281.140625 104.625 C 280.941406 104.554688 280.804688 104.488281 280.671875 104.351562 Z M 273.585938 109.882812 L 276.621094 107.117188 C 276.890625 106.847656 277.296875 106.914062 277.566406 107.1875 C 277.835938 107.457031 277.769531 107.859375 277.5 108.128906 L 274.460938 110.894531 C 274.328125 111.03125 274.191406 111.097656 273.988281 111.097656 C 273.789062 111.097656 273.652344 111.03125 273.519531 110.894531 C 273.246094 110.558594 273.316406 110.152344 273.585938 109.882812 Z M 268.1875 115.75 C 267.917969 115.480469 267.984375 115.074219 268.253906 114.804688 L 270.347656 112.851562 C 270.617188 112.582031 271.019531 112.648438 271.292969 112.917969 C 271.5625 113.1875 271.492188 113.59375 271.222656 113.863281 L 269.132812 115.816406 C 268.996094 115.953125 268.863281 116.019531 268.660156 116.019531 C 268.457031 115.953125 268.320312 115.886719 268.1875 115.75 Z M 247.539062 133.753906 L 264.273438 118.449219 C 264.542969 118.179688 264.949219 118.246094 265.21875 118.515625 C 265.488281 118.785156 265.421875 119.1875 265.152344 119.460938 L 248.417969 134.765625 C 248.28125 134.902344 248.148438 134.96875 247.945312 134.96875 C 247.742188 134.96875 247.605469 134.902344 247.472656 134.765625 C 247.203125 134.429688 247.269531 134.023438 247.539062 133.753906 Z M 283.773438 115.074219 L 297.539062 104.351562 C 297.808594 104.152344 298.28125 104.152344 298.484375 104.488281 C 298.6875 104.824219 298.6875 105.230469 298.347656 105.433594 L 284.582031 116.15625 C 284.449219 116.222656 284.3125 116.289062 284.179688 116.289062 C 283.976562 116.289062 283.773438 116.222656 283.640625 116.019531 C 283.4375 115.75 283.503906 115.277344 283.773438 115.074219 Z M 264.070312 130.382812 L 278.039062 119.59375 C 278.308594 119.390625 278.78125 119.390625 278.984375 119.730469 C 279.1875 120 279.1875 120.46875 278.847656 120.671875 L 264.878906 131.53125 C 264.746094 131.597656 264.609375 131.664062 264.476562 131.664062 C 264.273438 131.664062 264.070312 131.597656 263.9375 131.394531 C 263.734375 131.058594 263.800781 130.652344 264.070312 130.382812 Z M 259.144531 135.105469 C 259.347656 135.375 259.347656 135.847656 259.011719 136.046875 L 253.273438 140.5 C 253.140625 140.566406 253.003906 140.632812 252.871094 140.632812 C 252.667969 140.632812 252.464844 140.566406 252.332031 140.363281 C 252.128906 140.09375 252.128906 139.621094 252.464844 139.421875 L 258.199219 134.96875 C 258.46875 134.765625 258.875 134.835938 259.144531 135.105469 Z M 320.074219 109.410156 C 319.875 109.074219 320.007812 108.667969 320.277344 108.46875 L 324.257812 105.972656 C 324.597656 105.769531 325 105.90625 325.203125 106.175781 C 325.40625 106.511719 325.273438 106.914062 325 107.117188 L 321.019531 109.613281 C 320.886719 109.679688 320.820312 109.75 320.683594 109.75 C 320.414062 109.679688 320.210938 109.613281 320.074219 109.410156 Z M 301.992188 120.671875 C 301.789062 120.335938 301.925781 119.929688 302.195312 119.730469 L 314.070312 112.3125 C 314.40625 112.109375 314.8125 112.242188 315.015625 112.511719 C 315.21875 112.851562 315.082031 113.253906 314.8125 113.457031 L 302.9375 120.875 C 302.800781 120.941406 302.734375 121.011719 302.601562 121.011719 C 302.328125 121.011719 302.128906 120.875 301.992188 120.671875 Z M 296.933594 123.84375 C 297.132812 124.179688 297 124.585938 296.730469 124.785156 L 283.097656 133.285156 C 282.964844 133.351562 282.898438 133.417969 282.761719 133.417969 C 282.558594 133.417969 282.289062 133.285156 282.222656 133.082031 C 282.019531 132.742188 282.15625 132.339844 282.425781 132.136719 L 296.054688 123.640625 C 296.324219 123.371094 296.730469 123.503906 296.933594 123.84375 Z M 277.566406 135.914062 C 277.769531 136.25 277.632812 136.65625 277.363281 136.859375 L 258.671875 148.523438 C 258.539062 148.589844 258.46875 148.660156 258.335938 148.660156 C 258.132812 148.660156 257.863281 148.523438 257.796875 148.320312 C 257.59375 147.984375 257.726562 147.578125 258 147.378906 L 276.6875 135.710938 C 276.890625 135.507812 277.363281 135.578125 277.566406 135.914062 Z M 275.945312 149.601562 L 284.988281 145.421875 C 285.324219 145.285156 285.730469 145.421875 285.867188 145.757812 C 286 146.097656 285.867188 146.5 285.527344 146.636719 L 276.488281 150.816406 C 276.417969 150.882812 276.285156 150.882812 276.21875 150.882812 C 275.945312 150.882812 275.746094 150.75 275.609375 150.480469 C 275.472656 150.140625 275.609375 149.738281 275.945312 149.601562 Z M 271.089844 153.3125 L 263.058594 157.019531 C 262.992188 157.089844 262.855469 157.089844 262.789062 157.089844 C 262.519531 157.089844 262.316406 156.953125 262.183594 156.683594 C 262.046875 156.347656 262.183594 155.941406 262.519531 155.808594 L 270.550781 152.097656 C 270.886719 151.964844 271.292969 152.097656 271.425781 152.433594 C 271.5625 152.773438 271.425781 153.175781 271.089844 153.3125 Z M 308.605469 150.480469 L 291.667969 156.144531 C 291.601562 156.144531 291.535156 156.210938 291.464844 156.210938 C 291.195312 156.210938 290.925781 156.007812 290.859375 155.738281 C 290.722656 155.402344 290.925781 154.996094 291.265625 154.863281 L 308.199219 149.199219 C 308.539062 149.0625 308.941406 149.265625 309.078125 149.601562 C 309.144531 150.007812 308.941406 150.414062 308.605469 150.480469 Z M 265.21875 164.371094 C 265.082031 164.035156 265.285156 163.628906 265.625 163.496094 L 285.796875 156.75 C 286.136719 156.617188 286.539062 156.820312 286.675781 157.15625 C 286.808594 157.492188 286.609375 157.898438 286.269531 158.03125 L 266.09375 164.777344 C 266.027344 164.777344 265.960938 164.84375 265.894531 164.84375 C 265.554688 164.84375 265.285156 164.640625 265.21875 164.371094 Z M 286.203125 167.472656 L 268.253906 172.597656 C 268.1875 172.597656 268.121094 172.597656 268.050781 172.597656 C 267.78125 172.597656 267.511719 172.394531 267.378906 172.125 C 267.242188 171.789062 267.511719 171.386719 267.851562 171.316406 L 285.796875 166.191406 C 286.136719 166.058594 286.539062 166.328125 286.609375 166.664062 C 286.742188 167 286.539062 167.40625 286.203125 167.472656 Z M 315.152344 176.511719 C 315.082031 176.171875 315.351562 175.835938 315.757812 175.769531 L 318.589844 175.429688 C 318.929688 175.363281 319.265625 175.632812 319.332031 176.039062 C 319.402344 176.375 319.132812 176.710938 318.726562 176.78125 L 315.894531 177.117188 C 315.894531 177.117188 315.824219 177.117188 315.824219 177.117188 C 315.488281 177.117188 315.21875 176.847656 315.152344 176.511719 Z M 309.144531 177.859375 L 298.820312 179.074219 C 298.820312 179.074219 298.753906 179.074219 298.753906 179.074219 C 298.417969 179.074219 298.148438 178.804688 298.078125 178.464844 C 298.011719 178.128906 298.28125 177.792969 298.6875 177.722656 L 309.011719 176.511719 C 309.347656 176.441406 309.683594 176.710938 309.753906 177.117188 C 309.753906 177.523438 309.484375 177.859375 309.144531 177.859375 Z M 293.355469 179.003906 C 293.421875 179.34375 293.152344 179.679688 292.75 179.746094 L 289.507812 180.152344 C 289.507812 180.152344 289.441406 180.152344 289.441406 180.152344 C 289.105469 180.152344 288.835938 179.882812 288.765625 179.542969 C 288.699219 179.207031 288.96875 178.871094 289.375 178.804688 L 292.613281 178.398438 C 293.019531 178.398438 293.355469 178.667969 293.355469 179.003906 Z M 269.738281 182.445312 C 269.402344 182.445312 269.132812 182.175781 269.0625 181.835938 C 268.996094 181.5 269.265625 181.164062 269.671875 181.09375 L 283.640625 179.476562 C 283.976562 179.410156 284.3125 179.679688 284.382812 180.085938 C 284.449219 180.421875 284.179688 180.757812 283.773438 180.824219 L 269.804688 182.445312 C 269.804688 182.445312 269.804688 182.445312 269.738281 182.445312 Z M 306.917969 187.570312 C 306.917969 187.164062 307.1875 186.894531 307.59375 186.894531 L 324.664062 186.421875 C 325 186.421875 325.339844 186.691406 325.339844 187.097656 C 325.339844 187.503906 325.070312 187.773438 324.664062 187.773438 L 307.59375 188.242188 C 307.253906 188.175781 306.917969 187.90625 306.917969 187.570312 Z M 301.722656 188.378906 L 290.589844 188.648438 C 290.25 188.648438 289.914062 188.378906 289.914062 187.972656 C 289.914062 187.570312 290.183594 187.300781 290.589844 187.300781 L 301.722656 187.03125 C 302.058594 187.03125 302.398438 187.300781 302.398438 187.703125 C 302.398438 188.042969 302.128906 188.378906 301.722656 188.378906 Z M 284.515625 188.785156 L 270.277344 189.1875 C 269.941406 189.1875 269.605469 188.917969 269.605469 188.511719 C 269.605469 188.109375 269.875 187.839844 270.277344 187.839844 L 284.515625 187.433594 C 284.855469 187.433594 285.191406 187.703125 285.191406 188.109375 C 285.191406 188.511719 284.855469 188.785156 284.515625 188.785156 Z M 348.417969 203.820312 C 348.417969 204.160156 348.078125 204.429688 347.742188 204.429688 C 347.742188 204.429688 347.671875 204.429688 347.671875 204.429688 L 343.691406 204.160156 C 343.289062 204.160156 343.019531 203.820312 343.085938 203.417969 C 343.085938 203.011719 343.421875 202.742188 343.828125 202.808594 L 347.808594 203.078125 C 348.214844 203.148438 348.484375 203.484375 348.417969 203.820312 Z M 338.160156 203.078125 C 338.160156 203.417969 337.824219 203.6875 337.484375 203.6875 C 337.484375 203.6875 337.417969 203.6875 337.417969 203.6875 L 307.527344 201.460938 C 307.121094 201.460938 306.851562 201.125 306.917969 200.71875 C 306.917969 200.316406 307.253906 200.046875 307.660156 200.113281 L 337.550781 202.339844 C 337.890625 202.339844 338.160156 202.675781 338.160156 203.078125 Z M 300.574219 200.921875 L 279.726562 199.371094 C 279.320312 199.371094 279.050781 199.035156 279.117188 198.628906 C 279.117188 198.222656 279.457031 197.953125 279.859375 198.023438 L 300.710938 199.574219 C 301.117188 199.574219 301.386719 199.910156 301.316406 200.316406 C 301.316406 200.652344 300.980469 200.921875 300.574219 200.921875 C 300.644531 200.921875 300.574219 200.921875 300.574219 200.921875 Z M 269.335938 197.886719 C 269.335938 197.484375 269.671875 197.210938 270.078125 197.28125 L 274.125 197.550781 C 274.53125 197.550781 274.800781 197.886719 274.730469 198.292969 C 274.730469 198.628906 274.394531 198.898438 274.058594 198.898438 C 274.058594 198.898438 273.988281 198.898438 273.988281 198.898438 L 269.941406 198.628906 C 269.605469 198.5625 269.265625 198.222656 269.335938 197.886719 Z M 287.484375 212.117188 C 287.148438 212.046875 286.878906 211.644531 287.011719 211.308594 C 287.148438 210.96875 287.484375 210.699219 287.824219 210.835938 L 294.433594 212.386719 C 294.773438 212.453125 295.042969 212.859375 294.90625 213.195312 C 294.839844 213.53125 294.570312 213.734375 294.234375 213.734375 C 294.164062 213.734375 294.097656 213.734375 294.097656 213.734375 Z M 280.199219 210.363281 L 268.59375 207.597656 C 268.253906 207.53125 267.984375 207.125 268.121094 206.789062 C 268.253906 206.453125 268.59375 206.183594 268.929688 206.316406 L 280.535156 209.082031 C 280.871094 209.148438 281.140625 209.554688 281.007812 209.890625 C 280.941406 210.226562 280.671875 210.429688 280.332031 210.429688 C 280.265625 210.429688 280.265625 210.429688 280.199219 210.363281 Z M 306.3125 229.246094 L 301.925781 227.761719 C 301.585938 227.625 301.386719 227.289062 301.519531 226.882812 C 301.65625 226.546875 301.992188 226.34375 302.398438 226.480469 L 306.785156 227.964844 C 307.121094 228.097656 307.324219 228.4375 307.1875 228.839844 C 307.121094 229.109375 306.851562 229.3125 306.582031 229.3125 C 306.445312 229.246094 306.378906 229.246094 306.3125 229.246094 Z M 275.878906 218.117188 C 276.015625 217.78125 276.351562 217.578125 276.757812 217.714844 L 295.246094 224.050781 C 295.582031 224.1875 295.785156 224.523438 295.648438 224.929688 C 295.582031 225.199219 295.3125 225.402344 295.042969 225.402344 C 294.976562 225.402344 294.90625 225.402344 294.839844 225.332031 L 276.351562 218.996094 C 275.945312 218.792969 275.746094 218.457031 275.878906 218.117188 Z M 266.164062 214.746094 C 266.296875 214.410156 266.636719 214.207031 267.039062 214.339844 L 271.019531 215.691406 C 271.359375 215.824219 271.5625 216.164062 271.425781 216.566406 C 271.359375 216.835938 271.089844 217.039062 270.820312 217.039062 C 270.75 217.039062 270.683594 217.039062 270.617188 216.972656 L 266.636719 215.621094 C 266.230469 215.488281 266.027344 215.082031 266.164062 214.746094 Z M 282.019531 231.46875 L 263.53125 223.917969 C 263.195312 223.78125 262.992188 223.378906 263.195312 223.039062 C 263.328125 222.703125 263.734375 222.5 264.070312 222.703125 L 282.558594 230.257812 C 282.898438 230.390625 283.097656 230.796875 282.898438 231.132812 C 282.761719 231.402344 282.558594 231.539062 282.289062 231.539062 C 282.222656 231.539062 282.085938 231.539062 282.019531 231.46875 Z M 302.195312 256.691406 L 281.34375 244.28125 C 281.007812 244.082031 280.941406 243.675781 281.140625 243.339844 C 281.34375 243 281.75 242.933594 282.085938 243.136719 L 302.9375 255.546875 C 303.273438 255.746094 303.34375 256.152344 303.140625 256.488281 C 303.003906 256.691406 302.800781 256.828125 302.53125 256.828125 C 302.398438 256.757812 302.328125 256.757812 302.195312 256.691406 Z M 260.5625 230.257812 L 275.945312 239.429688 C 276.285156 239.628906 276.351562 240.035156 276.148438 240.371094 C 276.015625 240.574219 275.8125 240.710938 275.542969 240.710938 C 275.40625 240.710938 275.273438 240.710938 275.203125 240.640625 L 259.820312 231.46875 C 259.484375 231.269531 259.414062 230.863281 259.617188 230.527344 C 259.820312 230.1875 260.226562 230.121094 260.5625 230.257812 Z M 294.773438 265.527344 C 294.433594 265.324219 294.367188 264.917969 294.570312 264.582031 C 294.773438 264.246094 295.175781 264.175781 295.515625 264.378906 L 303.746094 270.042969 C 304.085938 270.246094 304.152344 270.652344 303.949219 270.988281 C 303.8125 271.191406 303.613281 271.257812 303.410156 271.257812 C 303.273438 271.257812 303.140625 271.191406 303.003906 271.121094 Z M 287.621094 258.984375 L 290.320312 260.804688 C 290.65625 261.007812 290.722656 261.410156 290.523438 261.75 C 290.386719 261.953125 290.183594 262.019531 289.980469 262.019531 C 289.847656 262.019531 289.710938 261.953125 289.578125 261.882812 L 286.878906 260.0625 C 286.539062 259.859375 286.472656 259.457031 286.675781 259.117188 C 286.945312 258.847656 287.351562 258.78125 287.621094 258.984375 Z M 279.929688 255.34375 L 255.5 238.550781 C 255.164062 238.347656 255.097656 237.945312 255.300781 237.605469 C 255.5 237.269531 255.90625 237.203125 256.242188 237.40625 L 280.671875 254.195312 C 281.007812 254.398438 281.074219 254.804688 280.871094 255.140625 C 280.738281 255.34375 280.535156 255.410156 280.332031 255.410156 C 280.199219 255.410156 280.0625 255.410156 279.929688 255.34375 Z M 310.425781 295.804688 C 310.695312 296.074219 310.765625 296.480469 310.496094 296.75 C 310.359375 296.882812 310.15625 296.949219 309.953125 296.949219 C 309.820312 296.949219 309.617188 296.882812 309.484375 296.816406 L 300.777344 289.261719 C 300.507812 288.992188 300.441406 288.589844 300.710938 288.320312 C 300.980469 288.050781 301.386719 287.980469 301.65625 288.25 Z M 295.109375 282.519531 C 295.378906 282.789062 295.449219 283.195312 295.175781 283.464844 C 295.042969 283.597656 294.839844 283.664062 294.636719 283.664062 C 294.503906 283.664062 294.300781 283.597656 294.164062 283.53125 L 277.230469 268.828125 C 276.960938 268.558594 276.890625 268.15625 277.160156 267.886719 C 277.429688 267.617188 277.835938 267.546875 278.105469 267.816406 Z M 272.707031 263.164062 C 272.976562 263.433594 273.046875 263.839844 272.777344 264.109375 C 272.640625 264.246094 272.4375 264.3125 272.234375 264.3125 C 272.101562 264.3125 271.898438 264.246094 271.761719 264.175781 L 258.132812 252.375 C 257.863281 252.105469 257.796875 251.699219 258.066406 251.429688 C 258.335938 251.160156 258.742188 251.09375 259.011719 251.363281 Z M 250.171875 245.429688 C 249.902344 245.160156 249.832031 244.753906 250.105469 244.484375 C 250.375 244.214844 250.777344 244.148438 251.046875 244.417969 L 254.21875 247.183594 C 254.488281 247.453125 254.558594 247.855469 254.289062 248.128906 C 254.152344 248.261719 253.949219 248.328125 253.746094 248.328125 C 253.613281 248.328125 253.410156 248.261719 253.273438 248.195312 Z M 253.816406 263.773438 C 253.542969 263.503906 253.613281 263.097656 253.882812 262.828125 C 254.152344 262.558594 254.558594 262.625 254.828125 262.894531 L 260.765625 269.503906 C 261.035156 269.773438 260.96875 270.179688 260.699219 270.449219 C 260.5625 270.582031 260.425781 270.652344 260.226562 270.652344 C 260.023438 270.652344 259.886719 270.582031 259.753906 270.449219 Z M 251.117188 258.78125 C 251.386719 259.050781 251.316406 259.457031 251.046875 259.726562 C 250.914062 259.859375 250.777344 259.929688 250.574219 259.929688 C 250.375 259.929688 250.238281 259.859375 250.105469 259.726562 L 243.558594 252.375 C 243.289062 252.105469 243.355469 251.699219 243.625 251.429688 C 243.894531 251.160156 244.300781 251.230469 244.570312 251.5 Z M 265.554688 292.230469 C 265.757812 292.5 265.757812 292.972656 265.421875 293.175781 C 265.285156 293.242188 265.152344 293.308594 265.015625 293.308594 C 264.8125 293.308594 264.609375 293.242188 264.476562 293.039062 L 261.640625 289.332031 C 261.441406 289.0625 261.441406 288.589844 261.777344 288.386719 C 262.046875 288.183594 262.519531 288.183594 262.722656 288.519531 Z M 258.066406 284.675781 L 253.074219 278.203125 C 252.871094 277.933594 252.871094 277.460938 253.207031 277.257812 C 253.476562 277.058594 253.949219 277.058594 254.152344 277.394531 L 259.144531 283.867188 C 259.347656 284.136719 259.347656 284.609375 259.011719 284.8125 C 258.875 284.878906 258.742188 284.945312 258.605469 284.945312 C 258.402344 284.945312 258.199219 284.878906 258.066406 284.675781 Z M 248.417969 272.269531 L 237.148438 257.703125 C 236.945312 257.433594 236.945312 256.960938 237.285156 256.757812 C 237.554688 256.554688 238.027344 256.554688 238.226562 256.894531 L 249.496094 271.460938 C 249.699219 271.730469 249.699219 272.203125 249.363281 272.402344 C 249.226562 272.472656 249.089844 272.539062 248.957031 272.539062 C 248.753906 272.539062 248.550781 272.472656 248.417969 272.269531 Z M 239.644531 278.070312 L 230.332031 262.355469 C 230.128906 262.019531 230.265625 261.613281 230.535156 261.410156 C 230.871094 261.210938 231.277344 261.34375 231.480469 261.613281 L 240.792969 277.328125 C 240.996094 277.664062 240.859375 278.070312 240.589844 278.269531 C 240.453125 278.339844 240.386719 278.339844 240.253906 278.339844 C 240.050781 278.40625 239.78125 278.269531 239.644531 278.070312 Z M 242.679688 310.035156 C 242.816406 310.371094 242.679688 310.773438 242.34375 310.910156 C 242.277344 310.976562 242.140625 310.976562 242.074219 310.976562 C 241.804688 310.976562 241.535156 310.84375 241.464844 310.574219 L 235.867188 297.828125 C 235.730469 297.488281 235.867188 297.085938 236.203125 296.949219 C 236.539062 296.816406 236.945312 296.949219 237.082031 297.289062 Z M 233.707031 289.667969 L 234.921875 292.363281 C 235.054688 292.703125 234.921875 293.105469 234.585938 293.242188 C 234.515625 293.308594 234.382812 293.308594 234.3125 293.308594 C 234.042969 293.308594 233.773438 293.175781 233.707031 292.90625 L 232.492188 290.207031 C 232.359375 289.871094 232.492188 289.464844 232.828125 289.332031 C 233.167969 289.128906 233.570312 289.332031 233.707031 289.667969 Z M 231.277344 285.757812 C 231.210938 285.824219 231.074219 285.824219 231.007812 285.824219 C 230.738281 285.824219 230.46875 285.6875 230.402344 285.417969 L 226.285156 276.113281 C 226.148438 275.777344 226.285156 275.371094 226.621094 275.234375 C 226.960938 275.101562 227.363281 275.234375 227.5 275.574219 L 231.617188 284.878906 C 231.75 285.21875 231.617188 285.621094 231.277344 285.757812 Z M 222.167969 266.738281 C 222.035156 266.402344 222.167969 265.996094 222.507812 265.863281 C 222.84375 265.726562 223.25 265.863281 223.382812 266.199219 L 225.203125 270.3125 C 225.339844 270.652344 225.203125 271.054688 224.867188 271.191406 C 224.800781 271.257812 224.664062 271.257812 224.597656 271.257812 C 224.328125 271.257812 224.058594 271.121094 223.992188 270.851562 Z M 235.394531 319.203125 C 235.527344 319.542969 235.328125 319.945312 234.988281 320.082031 C 234.921875 320.082031 234.855469 320.148438 234.71875 320.148438 C 234.449219 320.148438 234.179688 320.015625 234.113281 319.742188 L 231.144531 312.125 C 231.007812 311.785156 231.210938 311.382812 231.546875 311.246094 C 231.886719 311.113281 232.289062 311.316406 232.425781 311.652344 Z M 230.402344 306.324219 C 230.535156 306.660156 230.332031 307.066406 229.996094 307.199219 C 229.929688 307.199219 229.859375 307.269531 229.726562 307.269531 C 229.457031 307.269531 229.1875 307.132812 229.117188 306.863281 L 220.480469 284.609375 C 220.347656 284.273438 220.550781 283.867188 220.886719 283.734375 C 221.222656 283.597656 221.628906 283.800781 221.765625 284.136719 Z M 219.808594 278.742188 C 219.941406 279.082031 219.738281 279.484375 219.402344 279.621094 C 219.335938 279.621094 219.265625 279.6875 219.132812 279.6875 C 218.863281 279.6875 218.59375 279.550781 218.523438 279.28125 L 214.882812 269.839844 C 214.746094 269.503906 214.949219 269.097656 215.285156 268.964844 C 215.625 268.828125 216.027344 269.03125 216.164062 269.371094 Z M 224.125 340.648438 C 224.191406 340.988281 223.992188 341.390625 223.652344 341.457031 C 223.585938 341.457031 223.519531 341.457031 223.519531 341.457031 C 223.179688 341.457031 222.910156 341.257812 222.84375 340.917969 L 220.007812 329.453125 C 219.941406 329.117188 220.144531 328.714844 220.480469 328.644531 C 220.820312 328.578125 221.222656 328.78125 221.292969 329.117188 Z M 219.265625 320.753906 C 219.335938 321.09375 219.132812 321.496094 218.792969 321.566406 C 218.726562 321.566406 218.660156 321.566406 218.660156 321.566406 C 218.324219 321.566406 218.050781 321.363281 217.984375 321.023438 L 214.679688 307.605469 C 214.609375 307.269531 214.8125 306.863281 215.152344 306.796875 C 215.488281 306.730469 215.894531 306.929688 215.960938 307.269531 Z M 214.542969 301.335938 C 214.609375 301.671875 214.410156 302.074219 214.070312 302.144531 C 214.003906 302.144531 213.9375 302.144531 213.9375 302.144531 C 213.597656 302.144531 213.328125 301.941406 213.261719 301.605469 L 212.722656 299.3125 C 212.65625 298.972656 212.855469 298.570312 213.195312 298.5 C 213.53125 298.433594 213.9375 298.636719 214.003906 298.972656 Z M 212.25 294.925781 C 212.183594 294.925781 212.113281 294.925781 212.113281 294.925781 C 211.777344 294.925781 211.507812 294.726562 211.441406 294.386719 L 206.042969 272.402344 C 205.972656 272.066406 206.175781 271.664062 206.515625 271.59375 C 206.851562 271.527344 207.257812 271.730469 207.324219 272.066406 L 212.722656 294.050781 C 212.855469 294.457031 212.65625 294.859375 212.25 294.925781 Z M 200.375 288.789062 L 201.183594 298.433594 C 201.183594 298.839844 200.914062 299.109375 200.578125 299.175781 C 200.578125 299.175781 200.507812 299.175781 200.507812 299.175781 C 200.171875 299.175781 199.835938 298.90625 199.835938 298.570312 L 199.023438 288.925781 C 199.023438 288.519531 199.292969 288.25 199.632812 288.183594 C 200.035156 288.117188 200.304688 288.386719 200.375 288.789062 Z M 199.160156 283.058594 C 198.820312 283.058594 198.484375 282.789062 198.484375 282.453125 L 197.742188 273.617188 C 197.742188 273.214844 198.011719 272.945312 198.351562 272.875 C 198.753906 272.808594 199.023438 273.144531 199.09375 273.484375 L 199.835938 282.316406 C 199.835938 282.722656 199.5625 283.058594 199.160156 283.058594 Z M 190.320312 312.324219 L 190.453125 318.664062 C 190.453125 319.070312 190.183594 319.339844 189.78125 319.339844 C 189.441406 319.339844 189.105469 319.070312 189.105469 318.664062 L 188.96875 312.324219 C 188.96875 311.921875 189.242188 311.652344 189.644531 311.652344 C 190.050781 311.652344 190.320312 311.988281 190.320312 312.324219 Z M 188.835938 305.71875 L 188.363281 285.148438 C 188.363281 284.746094 188.632812 284.476562 189.039062 284.476562 C 189.375 284.476562 189.710938 284.746094 189.710938 285.148438 L 190.183594 305.71875 C 190.183594 306.121094 189.914062 306.390625 189.511719 306.390625 C 189.105469 306.390625 188.835938 306.121094 188.835938 305.71875 Z M 188.226562 279.214844 L 188.160156 274.695312 C 188.160156 274.292969 188.429688 274.023438 188.835938 274.023438 C 189.242188 274.023438 189.511719 274.292969 189.511719 274.695312 L 189.578125 279.214844 C 189.578125 279.621094 189.308594 279.890625 188.902344 279.890625 C 188.566406 279.890625 188.296875 279.621094 188.226562 279.214844 Z M 181.480469 274.695312 L 180.0625 291.488281 C 180.0625 291.824219 179.726562 292.09375 179.390625 292.09375 C 179.390625 292.09375 179.320312 292.09375 179.320312 292.09375 C 178.917969 292.09375 178.648438 291.757812 178.714844 291.351562 L 180.132812 274.5625 C 180.132812 274.15625 180.46875 273.886719 180.875 273.953125 C 181.277344 274.023438 181.546875 274.359375 181.480469 274.695312 Z M 164.207031 311.988281 L 161.777344 322.847656 C 161.710938 323.183594 161.441406 323.386719 161.101562 323.386719 C 161.035156 323.386719 161.035156 323.386719 160.96875 323.386719 C 160.628906 323.316406 160.359375 322.914062 160.429688 322.578125 L 162.855469 311.71875 C 162.925781 311.382812 163.328125 311.113281 163.667969 311.179688 C 164.003906 311.246094 164.339844 311.652344 164.207031 311.988281 Z M 167.378906 297.828125 L 165.421875 306.730469 C 165.355469 307.066406 165.085938 307.269531 164.746094 307.269531 C 164.679688 307.269531 164.679688 307.269531 164.613281 307.269531 C 164.273438 307.199219 164.003906 306.796875 164.070312 306.460938 L 166.027344 297.558594 C 166.097656 297.21875 166.5 296.949219 166.839844 297.019531 C 167.242188 297.085938 167.511719 297.421875 167.378906 297.828125 Z M 172.777344 273.753906 L 168.929688 290.8125 C 168.863281 291.152344 168.59375 291.351562 168.253906 291.351562 C 168.1875 291.351562 168.1875 291.351562 168.121094 291.351562 C 167.78125 291.285156 167.511719 290.882812 167.582031 290.542969 L 171.425781 273.484375 C 171.496094 273.144531 171.898438 272.875 172.238281 272.945312 C 172.640625 273.011719 172.84375 273.347656 172.777344 273.753906 Z M 153.410156 311.785156 L 150.105469 323.859375 C 150.035156 324.128906 149.765625 324.328125 149.429688 324.328125 C 149.363281 324.328125 149.292969 324.328125 149.226562 324.328125 C 148.890625 324.261719 148.6875 323.859375 148.753906 323.519531 L 152.0625 311.449219 C 152.128906 311.113281 152.535156 310.910156 152.871094 310.976562 C 153.34375 311.042969 153.546875 311.449219 153.410156 311.785156 Z M 157.324219 297.828125 L 155.234375 305.515625 C 155.164062 305.785156 154.894531 305.988281 154.558594 305.988281 C 154.492188 305.988281 154.421875 305.988281 154.355469 305.988281 C 154.019531 305.917969 153.816406 305.515625 153.882812 305.179688 L 155.976562 297.488281 C 156.042969 297.152344 156.445312 296.949219 156.785156 297.019531 C 157.1875 297.085938 157.390625 297.421875 157.324219 297.828125 Z M 159.550781 289.734375 L 158.808594 292.5 C 158.742188 292.769531 158.472656 292.972656 158.132812 292.972656 C 158.066406 292.972656 158 292.972656 157.929688 292.972656 C 157.59375 292.90625 157.390625 292.5 157.460938 292.164062 L 158.203125 289.398438 C 158.269531 289.0625 158.671875 288.859375 159.011719 288.925781 C 159.414062 288.992188 159.617188 289.332031 159.550781 289.734375 Z M 160.496094 286.226562 C 160.429688 286.5 160.160156 286.699219 159.820312 286.699219 C 159.753906 286.699219 159.6875 286.699219 159.617188 286.699219 C 159.28125 286.632812 159.078125 286.226562 159.144531 285.890625 L 163.128906 271.460938 C 163.195312 271.121094 163.597656 270.921875 163.9375 270.988281 C 164.273438 271.054688 164.476562 271.460938 164.410156 271.796875 Z M 134.246094 321.566406 L 130.671875 330.398438 C 130.535156 330.667969 130.332031 330.804688 130.0625 330.804688 C 129.996094 330.804688 129.863281 330.804688 129.792969 330.734375 C 129.457031 330.601562 129.253906 330.195312 129.390625 329.859375 L 132.964844 321.023438 C 133.101562 320.6875 133.503906 320.484375 133.84375 320.621094 C 134.246094 320.824219 134.382812 321.160156 134.246094 321.566406 Z M 143.625 298.367188 L 136.542969 315.898438 C 136.40625 316.171875 136.203125 316.304688 135.933594 316.304688 C 135.867188 316.304688 135.730469 316.304688 135.664062 316.238281 C 135.328125 316.101562 135.125 315.699219 135.257812 315.359375 L 142.34375 297.828125 C 142.480469 297.488281 142.882812 297.289062 143.222656 297.421875 C 143.625 297.625 143.761719 298.03125 143.625 298.367188 Z M 152.667969 276.113281 L 145.109375 294.726562 C 144.976562 294.996094 144.773438 295.128906 144.503906 295.128906 C 144.4375 295.128906 144.300781 295.128906 144.234375 295.0625 C 143.898438 294.925781 143.695312 294.523438 143.828125 294.1875 L 151.386719 275.507812 C 151.519531 275.167969 151.925781 274.964844 152.261719 275.101562 C 152.667969 275.371094 152.871094 275.707031 152.667969 276.113281 Z M 154.019531 271.796875 C 153.949219 271.796875 153.816406 271.796875 153.746094 271.730469 C 153.410156 271.59375 153.207031 271.191406 153.34375 270.851562 L 154.421875 268.289062 C 154.558594 267.953125 154.960938 267.75 155.300781 267.886719 C 155.636719 268.019531 155.839844 268.425781 155.703125 268.761719 L 154.625 271.324219 C 154.492188 271.664062 154.21875 271.796875 154.019531 271.796875 Z M 135.191406 285.757812 C 135.058594 285.757812 134.988281 285.757812 134.855469 285.6875 C 134.515625 285.488281 134.449219 285.082031 134.585938 284.746094 L 139.644531 276.113281 C 139.847656 275.777344 140.253906 275.707031 140.589844 275.84375 C 140.925781 276.046875 140.996094 276.449219 140.859375 276.789062 L 135.800781 285.417969 C 135.664062 285.621094 135.394531 285.757812 135.191406 285.757812 Z M 142.210938 273.078125 C 141.871094 272.875 141.804688 272.472656 141.941406 272.132812 L 146.460938 264.445312 C 146.664062 264.109375 147.066406 264.042969 147.40625 264.175781 C 147.742188 264.378906 147.808594 264.785156 147.675781 265.121094 L 143.15625 272.808594 C 143.019531 273.011719 142.816406 273.144531 142.546875 273.144531 C 142.410156 273.144531 142.277344 273.144531 142.210938 273.078125 Z M 122.980469 284.070312 C 123.25 284.273438 123.316406 284.746094 123.113281 285.015625 L 116.636719 293.847656 C 116.5 294.050781 116.300781 294.117188 116.097656 294.117188 C 115.960938 294.117188 115.828125 294.050781 115.691406 293.984375 C 115.421875 293.78125 115.355469 293.308594 115.558594 293.039062 L 122.035156 284.207031 C 122.238281 283.933594 122.640625 283.867188 122.980469 284.070312 Z M 136.878906 266.335938 L 125.949219 281.238281 C 125.8125 281.441406 125.609375 281.507812 125.40625 281.507812 C 125.273438 281.507812 125.136719 281.441406 125.003906 281.371094 C 124.734375 281.171875 124.664062 280.699219 124.867188 280.429688 L 135.800781 265.527344 C 136 265.253906 136.472656 265.1875 136.742188 265.390625 C 137.015625 265.59375 137.082031 266.066406 136.878906 266.335938 Z M 139.308594 262.625 C 139.171875 262.625 139.039062 262.558594 138.902344 262.492188 C 138.632812 262.289062 138.566406 261.816406 138.769531 261.546875 L 139.714844 260.265625 C 139.914062 259.996094 140.386719 259.929688 140.65625 260.128906 C 140.925781 260.332031 140.996094 260.804688 140.792969 261.074219 L 139.847656 262.355469 C 139.714844 262.492188 139.511719 262.625 139.308594 262.625 Z M 120.820312 268.089844 L 132.5625 254.871094 C 132.832031 254.601562 133.234375 254.535156 133.503906 254.804688 C 133.773438 255.074219 133.84375 255.476562 133.574219 255.746094 L 121.832031 268.964844 C 121.695312 269.097656 121.496094 269.167969 121.359375 269.167969 C 121.226562 269.167969 121.023438 269.097656 120.886719 268.964844 C 120.617188 268.761719 120.617188 268.359375 120.820312 268.089844 Z M 82.695312 287.78125 C 82.964844 288.050781 82.898438 288.453125 82.628906 288.722656 L 80.671875 290.476562 C 80.535156 290.613281 80.402344 290.679688 80.199219 290.679688 C 79.996094 290.679688 79.863281 290.613281 79.726562 290.476562 C 79.457031 290.207031 79.523438 289.800781 79.792969 289.53125 L 81.75 287.78125 C 82.019531 287.507812 82.425781 287.507812 82.695312 287.78125 Z M 95.382812 276.179688 C 95.652344 276.449219 95.582031 276.855469 95.3125 277.125 L 90.050781 281.980469 C 89.914062 282.113281 89.78125 282.183594 89.578125 282.183594 C 89.375 282.183594 89.242188 282.113281 89.105469 281.980469 C 88.835938 281.710938 88.902344 281.304688 89.171875 281.035156 L 94.4375 276.179688 C 94.707031 275.910156 95.113281 275.910156 95.382812 276.179688 Z M 111.914062 261.953125 L 100.375 272.539062 C 100.238281 272.671875 100.105469 272.742188 99.902344 272.742188 C 99.699219 272.742188 99.566406 272.671875 99.429688 272.539062 C 99.160156 272.269531 99.226562 271.863281 99.496094 271.59375 L 111.035156 261.007812 C 111.304688 260.738281 111.710938 260.804688 111.980469 261.074219 C 112.183594 261.277344 112.183594 261.683594 111.914062 261.953125 Z M 115.558594 257.636719 C 115.285156 257.367188 115.355469 256.960938 115.625 256.691406 L 125.207031 247.855469 C 125.476562 247.585938 125.878906 247.65625 126.148438 247.925781 C 126.421875 248.195312 126.351562 248.597656 126.082031 248.867188 L 116.5 257.703125 C 116.367188 257.835938 116.230469 257.90625 116.027344 257.90625 C 115.894531 257.835938 115.691406 257.769531 115.558594 257.636719 Z M 77.703125 272.875 C 77.90625 273.214844 77.835938 273.617188 77.5 273.820312 L 75.476562 275.234375 C 75.339844 275.304688 75.207031 275.371094 75.070312 275.371094 C 74.867188 275.371094 74.667969 275.234375 74.53125 275.101562 C 74.328125 274.765625 74.394531 274.359375 74.734375 274.15625 L 76.757812 272.742188 C 77.09375 272.539062 77.5 272.605469 77.703125 272.875 Z M 81.886719 269.976562 C 81.683594 269.640625 81.75 269.234375 82.089844 269.03125 L 93.558594 261.074219 C 93.898438 260.871094 94.300781 260.941406 94.503906 261.277344 C 94.707031 261.613281 94.640625 262.019531 94.300781 262.222656 L 82.832031 270.179688 C 82.695312 270.246094 82.5625 270.3125 82.425781 270.3125 C 82.222656 270.246094 82.019531 270.179688 81.886719 269.976562 Z M 99.226562 258.648438 C 99.023438 258.648438 98.824219 258.511719 98.6875 258.378906 C 98.484375 258.039062 98.554688 257.636719 98.890625 257.433594 L 112.722656 247.855469 C 113.058594 247.65625 113.464844 247.722656 113.667969 248.058594 C 113.871094 248.398438 113.800781 248.800781 113.464844 249.003906 L 99.632812 258.511719 C 99.496094 258.578125 99.363281 258.648438 99.226562 258.648438 Z M 117.785156 245.765625 C 117.582031 245.765625 117.378906 245.632812 117.242188 245.496094 C 117.042969 245.160156 117.109375 244.753906 117.445312 244.554688 L 120.617188 242.328125 C 120.953125 242.125 121.359375 242.191406 121.5625 242.53125 C 121.765625 242.867188 121.695312 243.273438 121.359375 243.472656 L 118.1875 245.699219 C 118.054688 245.765625 117.917969 245.765625 117.785156 245.765625 Z M 54.085938 273.28125 C 54.289062 273.617188 54.152344 274.023438 53.882812 274.226562 L 50.511719 276.246094 C 50.375 276.316406 50.308594 276.316406 50.171875 276.316406 C 49.96875 276.316406 49.699219 276.179688 49.566406 275.976562 C 49.363281 275.640625 49.496094 275.234375 49.769531 275.035156 L 53.140625 273.011719 C 53.480469 272.875 53.882812 272.945312 54.085938 273.28125 Z M 79.390625 258.847656 L 57.527344 272 C 57.390625 272.066406 57.324219 272.066406 57.191406 272.066406 C 56.988281 272.066406 56.71875 271.933594 56.582031 271.730469 C 56.378906 271.390625 56.515625 270.988281 56.785156 270.785156 L 78.648438 257.636719 C 78.984375 257.433594 79.390625 257.566406 79.59375 257.835938 C 79.792969 258.242188 79.726562 258.648438 79.390625 258.847656 Z M 98.417969 247.453125 L 85.933594 254.9375 C 85.800781 255.003906 85.730469 255.003906 85.597656 255.003906 C 85.394531 255.003906 85.125 254.871094 84.988281 254.667969 C 84.789062 254.332031 84.921875 253.925781 85.191406 253.722656 L 97.675781 246.238281 C 98.011719 246.035156 98.417969 246.171875 98.621094 246.441406 C 98.824219 246.847656 98.6875 247.25 98.417969 247.453125 Z M 102.601562 243.339844 L 115.691406 235.449219 C 116.027344 235.246094 116.433594 235.382812 116.636719 235.652344 C 116.839844 235.988281 116.703125 236.394531 116.433594 236.59375 L 103.277344 244.484375 C 103.140625 244.554688 103.074219 244.554688 102.9375 244.554688 C 102.734375 244.554688 102.464844 244.417969 102.332031 244.214844 C 102.195312 243.945312 102.265625 243.542969 102.601562 243.339844 Z M 98.148438 235.3125 L 84.113281 241.855469 C 84.046875 241.921875 83.910156 241.921875 83.84375 241.921875 C 83.574219 241.921875 83.371094 241.789062 83.234375 241.519531 C 83.101562 241.179688 83.234375 240.777344 83.574219 240.640625 L 97.609375 234.101562 C 97.945312 233.964844 98.351562 234.101562 98.484375 234.4375 C 98.621094 234.773438 98.484375 235.179688 98.148438 235.3125 Z M 112.519531 227.894531 C 112.65625 228.234375 112.519531 228.636719 112.183594 228.773438 L 103.207031 232.953125 C 103.140625 233.019531 103.007812 233.019531 102.9375 233.019531 C 102.667969 233.019531 102.464844 232.886719 102.332031 232.617188 C 102.195312 232.28125 102.332031 231.875 102.667969 231.738281 L 111.644531 227.558594 C 111.980469 227.355469 112.386719 227.558594 112.519531 227.894531 Z M 77.703125 230.660156 L 65.894531 234.773438 C 65.828125 234.773438 65.757812 234.84375 65.691406 234.84375 C 65.421875 234.84375 65.152344 234.640625 65.085938 234.371094 C 64.949219 234.03125 65.152344 233.628906 65.488281 233.492188 L 77.296875 229.378906 C 77.636719 229.246094 78.039062 229.445312 78.175781 229.785156 C 78.242188 230.1875 78.109375 230.527344 77.703125 230.660156 Z M 94.503906 224.121094 C 94.640625 224.457031 94.4375 224.863281 94.097656 224.996094 L 82.761719 228.90625 C 82.695312 228.90625 82.628906 228.976562 82.5625 228.976562 C 82.292969 228.976562 82.019531 228.773438 81.953125 228.503906 C 81.820312 228.164062 82.019531 227.761719 82.359375 227.625 L 93.695312 223.714844 C 93.964844 223.582031 94.371094 223.78125 94.503906 224.121094 Z M 98.957031 223.242188 C 98.6875 223.242188 98.417969 223.039062 98.351562 222.769531 C 98.214844 222.433594 98.417969 222.027344 98.753906 221.894531 L 107.730469 218.792969 C 108.066406 218.65625 108.472656 218.859375 108.605469 219.195312 C 108.742188 219.535156 108.539062 219.9375 108.203125 220.074219 L 99.226562 223.175781 C 99.09375 223.242188 99.023438 223.242188 98.957031 223.242188 Z M 105.636719 212.046875 L 85.730469 217.511719 C 85.664062 217.511719 85.597656 217.511719 85.53125 217.511719 C 85.261719 217.511719 84.988281 217.308594 84.855469 217.039062 C 84.789062 216.703125 84.988281 216.296875 85.328125 216.230469 L 105.234375 210.765625 C 105.570312 210.699219 105.976562 210.902344 106.042969 211.238281 C 106.175781 211.578125 105.976562 211.980469 105.636719 212.046875 Z M 64.34375 206.992188 L 55.164062 208.136719 C 55.164062 208.136719 55.097656 208.136719 55.097656 208.136719 C 54.761719 208.136719 54.492188 207.867188 54.421875 207.53125 C 54.355469 207.191406 54.625 206.855469 55.03125 206.789062 L 64.207031 205.640625 C 64.613281 205.574219 64.882812 205.84375 64.949219 206.25 C 65.015625 206.585938 64.746094 206.921875 64.34375 206.992188 Z M 95.582031 203.011719 L 69.941406 206.25 C 69.941406 206.25 69.875 206.25 69.875 206.25 C 69.539062 206.25 69.269531 205.980469 69.199219 205.640625 C 69.132812 205.304688 69.402344 204.96875 69.808594 204.902344 L 95.449219 201.664062 C 95.855469 201.597656 96.125 201.867188 96.191406 202.269531 C 96.257812 202.675781 95.921875 203.011719 95.582031 203.011719 Z M 103.476562 200.652344 C 103.816406 200.585938 104.152344 200.855469 104.222656 201.257812 C 104.289062 201.664062 104.019531 201.933594 103.613281 202 L 100.644531 202.40625 C 100.644531 202.40625 100.578125 202.40625 100.578125 202.40625 C 100.238281 202.40625 99.96875 202.136719 99.902344 201.796875 C 99.835938 201.460938 100.105469 201.125 100.507812 201.058594 Z M 56.582031 196.539062 L 45.71875 197.011719 C 45.382812 197.011719 45.042969 196.742188 45.042969 196.335938 C 45.042969 195.929688 45.3125 195.660156 45.71875 195.660156 L 56.582031 195.191406 C 56.921875 195.191406 57.257812 195.460938 57.257812 195.863281 C 57.257812 196.269531 56.988281 196.539062 56.582031 196.539062 Z M 69.539062 196 L 62.925781 196.269531 C 62.589844 196.269531 62.25 196 62.25 195.59375 C 62.25 195.191406 62.519531 194.921875 62.925781 194.921875 L 69.539062 194.648438 C 69.941406 194.648438 70.210938 194.921875 70.210938 195.324219 C 70.210938 195.660156 69.941406 195.929688 69.539062 196 Z M 78.039062 194.246094 L 102.9375 193.097656 C 103.277344 193.097656 103.613281 193.367188 103.613281 193.773438 C 103.613281 194.179688 103.34375 194.449219 102.9375 194.449219 L 78.039062 195.59375 C 77.703125 195.59375 77.367188 195.324219 77.367188 194.921875 C 77.367188 194.582031 77.703125 194.246094 78.039062 194.246094 Z M 44.640625 179.746094 C 44.570312 180.085938 44.300781 180.355469 43.964844 180.355469 C 43.964844 180.355469 43.898438 180.355469 43.898438 180.355469 L 26.960938 178.667969 C 26.625 178.601562 26.355469 178.332031 26.355469 177.925781 C 26.355469 177.523438 26.691406 177.320312 27.097656 177.320312 L 44.03125 179.003906 C 44.371094 179.074219 44.640625 179.34375 44.640625 179.746094 Z M 47.878906 180.085938 C 47.945312 179.746094 48.214844 179.476562 48.621094 179.476562 L 52.398438 179.882812 C 52.738281 179.949219 53.007812 180.21875 53.007812 180.625 C 52.9375 180.960938 52.667969 181.230469 52.332031 181.230469 C 52.332031 181.230469 52.265625 181.230469 52.265625 181.230469 L 48.484375 180.824219 C 48.082031 180.757812 47.8125 180.421875 47.878906 180.085938 Z M 58.132812 180.421875 L 79.457031 182.578125 C 79.792969 182.648438 80.0625 182.917969 80.0625 183.320312 C 79.996094 183.65625 79.726562 183.929688 79.390625 183.929688 C 79.390625 183.929688 79.320312 183.929688 79.320312 183.929688 L 58 181.769531 C 57.664062 181.703125 57.390625 181.433594 57.390625 181.027344 C 57.460938 180.691406 57.730469 180.421875 58.132812 180.421875 Z M 87.960938 183.457031 C 88.296875 183.523438 88.632812 183.792969 88.566406 184.199219 C 88.5 184.535156 88.230469 184.804688 87.890625 184.804688 C 87.890625 184.804688 87.824219 184.804688 87.824219 184.804688 L 85.460938 184.535156 C 85.125 184.46875 84.789062 184.199219 84.855469 183.792969 C 84.921875 183.457031 85.191406 183.117188 85.597656 183.1875 Z M 93.761719 184.738281 C 93.828125 184.398438 94.097656 184.128906 94.503906 184.128906 L 103.207031 185.007812 C 103.546875 185.074219 103.816406 185.34375 103.816406 185.75 C 103.75 186.085938 103.476562 186.355469 103.140625 186.355469 C 103.140625 186.355469 103.074219 186.355469 103.074219 186.355469 L 94.371094 185.480469 C 93.964844 185.410156 93.695312 185.074219 93.761719 184.738281 Z M 80.605469 170.777344 C 80.535156 171.113281 80.265625 171.316406 79.929688 171.316406 C 79.863281 171.316406 79.863281 171.316406 79.792969 171.316406 L 72.238281 169.632812 C 71.898438 169.5625 71.628906 169.160156 71.699219 168.820312 C 71.765625 168.484375 72.167969 168.214844 72.507812 168.28125 L 80.0625 169.902344 C 80.46875 170.035156 80.671875 170.375 80.605469 170.777344 Z M 104.152344 176.578125 L 85.261719 172.464844 C 84.921875 172.394531 84.652344 171.992188 84.71875 171.65625 C 84.789062 171.316406 85.191406 171.046875 85.53125 171.113281 L 104.421875 175.230469 C 104.761719 175.296875 105.03125 175.699219 104.964844 176.039062 C 104.894531 176.375 104.625 176.578125 104.289062 176.578125 C 104.289062 176.578125 104.222656 176.578125 104.152344 176.578125 Z M 62.789062 153.246094 C 62.925781 152.90625 63.261719 152.703125 63.667969 152.773438 L 78.984375 157.628906 C 79.320312 157.761719 79.523438 158.101562 79.457031 158.503906 C 79.390625 158.773438 79.121094 158.976562 78.78125 158.976562 C 78.714844 158.976562 78.648438 158.976562 78.578125 158.976562 L 63.261719 154.121094 C 62.859375 153.988281 62.65625 153.582031 62.789062 153.246094 Z M 84.652344 159.515625 L 94.300781 162.617188 C 94.640625 162.753906 94.839844 163.089844 94.773438 163.496094 C 94.707031 163.765625 94.4375 163.96875 94.097656 163.96875 C 94.03125 163.96875 93.964844 163.96875 93.898438 163.96875 L 84.246094 160.863281 C 83.910156 160.730469 83.707031 160.394531 83.777344 159.988281 C 83.910156 159.582031 84.316406 159.382812 84.652344 159.515625 Z M 106.246094 167.742188 L 100.375 165.855469 C 100.039062 165.71875 99.835938 165.382812 99.96875 164.976562 C 100.105469 164.640625 100.441406 164.4375 100.847656 164.574219 L 106.71875 166.460938 C 107.054688 166.597656 107.257812 166.933594 107.121094 167.339844 C 107.054688 167.609375 106.785156 167.8125 106.449219 167.8125 C 106.378906 167.8125 106.3125 167.742188 106.246094 167.742188 Z M 108.539062 160.863281 L 93.085938 154.054688 C 92.75 153.917969 92.613281 153.515625 92.75 153.175781 C 92.882812 152.839844 93.289062 152.703125 93.628906 152.839844 L 109.078125 159.652344 C 109.417969 159.785156 109.550781 160.191406 109.417969 160.527344 C 109.28125 160.796875 109.078125 160.933594 108.808594 160.933594 C 108.742188 160.933594 108.605469 160.933594 108.539062 160.863281 Z M 70.210938 126.269531 C 70.414062 125.933594 70.820312 125.867188 71.15625 126 L 80.941406 131.53125 C 81.277344 131.734375 81.414062 132.136719 81.210938 132.472656 C 81.078125 132.675781 80.875 132.8125 80.605469 132.8125 C 80.46875 132.8125 80.402344 132.8125 80.265625 132.742188 L 70.484375 127.214844 C 70.144531 127.011719 70.078125 126.605469 70.210938 126.269531 Z M 105.707031 146.296875 C 105.570312 146.5 105.367188 146.636719 105.097656 146.636719 C 104.964844 146.636719 104.894531 146.636719 104.761719 146.570312 L 86.878906 136.453125 C 86.542969 136.25 86.40625 135.847656 86.609375 135.507812 C 86.8125 135.171875 87.214844 135.035156 87.554688 135.238281 L 105.433594 145.355469 C 105.773438 145.558594 105.90625 145.960938 105.707031 146.296875 Z M 113.058594 151.222656 L 109.820312 149.402344 C 109.484375 149.199219 109.347656 148.792969 109.550781 148.457031 C 109.753906 148.121094 110.160156 148.050781 110.496094 148.1875 L 113.734375 150.007812 C 114.070312 150.210938 114.207031 150.613281 114.003906 150.953125 C 113.871094 151.152344 113.667969 151.289062 113.398438 151.289062 C 113.261719 151.289062 113.128906 151.289062 113.058594 151.222656 Z M 70.957031 112.984375 C 71.15625 112.648438 71.5625 112.582031 71.898438 112.78125 L 74.394531 114.402344 C 74.734375 114.605469 74.800781 115.007812 74.597656 115.34375 C 74.464844 115.546875 74.261719 115.683594 74.058594 115.683594 C 73.925781 115.683594 73.789062 115.617188 73.722656 115.546875 L 71.226562 113.929688 C 70.886719 113.726562 70.753906 113.324219 70.957031 112.984375 Z M 78.714844 117.234375 L 95.042969 127.820312 C 95.382812 128.023438 95.449219 128.429688 95.246094 128.765625 C 95.113281 128.96875 94.910156 129.101562 94.707031 129.101562 C 94.570312 129.101562 94.4375 129.035156 94.371094 128.96875 L 78.039062 118.378906 C 77.703125 118.179688 77.636719 117.773438 77.835938 117.4375 C 78.039062 117.097656 78.445312 117.03125 78.714844 117.234375 Z M 117.445312 144.074219 L 99.96875 132.675781 C 99.632812 132.472656 99.566406 132.070312 99.765625 131.734375 C 99.96875 131.394531 100.375 131.328125 100.710938 131.53125 L 118.1875 142.925781 C 118.527344 143.128906 118.59375 143.535156 118.390625 143.871094 C 118.253906 144.074219 118.054688 144.207031 117.851562 144.207031 C 117.714844 144.140625 117.582031 144.140625 117.445312 144.074219 Z M 64.273438 87.496094 C 64.003906 87.226562 63.9375 86.820312 64.207031 86.550781 C 64.476562 86.28125 64.882812 86.214844 65.152344 86.484375 L 69.605469 90.257812 C 69.875 90.527344 69.941406 90.933594 69.671875 91.203125 C 69.539062 91.339844 69.335938 91.472656 69.132812 91.472656 C 69 91.472656 68.796875 91.40625 68.726562 91.339844 Z M 72.574219 94.574219 C 72.304688 94.304688 72.238281 93.902344 72.507812 93.632812 C 72.777344 93.363281 73.183594 93.292969 73.453125 93.5625 L 85.53125 103.8125 C 85.800781 104.082031 85.867188 104.488281 85.597656 104.757812 C 85.460938 104.894531 85.261719 105.027344 85.058594 105.027344 C 84.921875 105.027344 84.71875 104.960938 84.652344 104.894531 Z M 87.757812 107.457031 C 87.488281 107.1875 87.417969 106.78125 87.6875 106.511719 C 87.960938 106.242188 88.363281 106.175781 88.632812 106.445312 L 91.804688 109.140625 C 92.074219 109.410156 92.140625 109.816406 91.871094 110.085938 C 91.738281 110.21875 91.535156 110.355469 91.332031 110.355469 C 91.199219 110.355469 90.996094 110.289062 90.929688 110.21875 Z M 95.3125 113.863281 C 95.042969 113.59375 94.976562 113.1875 95.246094 112.917969 C 95.515625 112.648438 95.921875 112.582031 96.191406 112.851562 L 106.851562 121.886719 C 107.121094 122.15625 107.191406 122.5625 106.917969 122.832031 C 106.785156 122.964844 106.582031 123.101562 106.378906 123.101562 C 106.246094 123.101562 106.042969 123.03125 105.976562 122.964844 Z M 116.90625 132.136719 L 110.5625 126.742188 C 110.292969 126.472656 110.226562 126.066406 110.496094 125.796875 C 110.765625 125.527344 111.171875 125.460938 111.441406 125.730469 L 117.785156 131.125 C 118.054688 131.394531 118.121094 131.800781 117.851562 132.070312 C 117.714844 132.203125 117.511719 132.339844 117.3125 132.339844 C 117.175781 132.339844 117.042969 132.273438 116.90625 132.136719 Z M 120.683594 133.621094 L 123.585938 136.046875 C 123.855469 136.316406 123.921875 136.722656 123.652344 136.992188 C 123.519531 137.128906 123.316406 137.261719 123.113281 137.261719 C 122.980469 137.261719 122.777344 137.195312 122.710938 137.128906 L 119.808594 134.699219 C 119.539062 134.429688 119.46875 134.023438 119.738281 133.753906 C 120.011719 133.484375 120.414062 133.351562 120.683594 133.621094 Z M 128.648438 130.722656 L 112.859375 112.175781 C 112.585938 111.90625 112.65625 111.433594 112.925781 111.230469 C 113.195312 110.960938 113.667969 111.03125 113.871094 111.300781 L 129.660156 129.84375 C 129.929688 130.113281 129.863281 130.585938 129.589844 130.789062 C 129.457031 130.921875 129.320312 130.921875 129.1875 130.921875 C 128.984375 130.992188 128.78125 130.921875 128.648438 130.722656 Z M 108.945312 88.371094 C 108.742188 88.101562 108.808594 87.628906 109.078125 87.425781 C 109.347656 87.226562 109.820312 87.292969 110.023438 87.5625 L 114.949219 94.441406 C 115.152344 94.710938 115.085938 95.183594 114.8125 95.382812 C 114.679688 95.453125 114.542969 95.519531 114.410156 95.519531 C 114.207031 95.519531 114.003906 95.453125 113.871094 95.25 Z M 117.242188 100.039062 C 117.042969 99.769531 117.109375 99.296875 117.378906 99.09375 C 117.648438 98.890625 118.121094 98.957031 118.324219 99.226562 L 126.351562 110.488281 C 126.554688 110.761719 126.488281 111.230469 126.21875 111.433594 C 126.082031 111.5 125.949219 111.570312 125.8125 111.570312 C 125.609375 111.570312 125.40625 111.5 125.273438 111.300781 Z M 129.726562 117.503906 C 129.523438 117.234375 129.589844 116.761719 129.863281 116.558594 C 130.132812 116.355469 130.605469 116.425781 130.804688 116.695312 L 136.273438 124.316406 C 136.472656 124.585938 136.40625 125.054688 136.136719 125.257812 C 136 125.324219 135.867188 125.394531 135.730469 125.394531 C 135.53125 125.394531 135.328125 125.324219 135.191406 125.125 Z M 133.574219 102.195312 C 133.910156 101.992188 134.316406 102.128906 134.449219 102.464844 L 143.289062 119.527344 C 143.492188 119.863281 143.355469 120.269531 143.019531 120.402344 C 142.953125 120.46875 142.816406 120.46875 142.683594 120.46875 C 142.410156 120.46875 142.210938 120.335938 142.074219 120.132812 L 133.234375 103.070312 C 133.101562 102.800781 133.234375 102.398438 133.574219 102.195312 Z M 129.996094 69.554688 C 129.863281 69.21875 129.996094 68.816406 130.332031 68.679688 C 130.671875 68.542969 131.074219 68.679688 131.210938 69.015625 L 133.167969 73.46875 C 133.304688 73.804688 133.167969 74.210938 132.832031 74.34375 C 132.761719 74.410156 132.628906 74.410156 132.5625 74.410156 C 132.289062 74.410156 132.089844 74.277344 131.953125 74.007812 Z M 134.046875 78.660156 C 133.910156 78.324219 134.046875 77.917969 134.382812 77.785156 C 134.71875 77.648438 135.125 77.785156 135.257812 78.121094 L 147.269531 104.960938 C 147.40625 105.296875 147.269531 105.703125 146.933594 105.835938 C 146.867188 105.90625 146.730469 105.90625 146.664062 105.90625 C 146.394531 105.90625 146.191406 105.769531 146.054688 105.5 Z M 151.792969 115.007812 C 151.925781 115.34375 151.792969 115.75 151.453125 115.886719 C 151.386719 115.953125 151.25 115.953125 151.183594 115.953125 C 150.914062 115.953125 150.710938 115.816406 150.578125 115.546875 L 148.078125 110.019531 C 147.945312 109.679688 148.078125 109.277344 148.417969 109.140625 C 148.753906 109.007812 149.160156 109.140625 149.292969 109.480469 Z M 138.699219 58.699219 C 138.566406 58.363281 138.769531 57.957031 139.105469 57.824219 C 139.441406 57.6875 139.847656 57.890625 139.984375 58.226562 L 143.355469 68.003906 C 143.492188 68.34375 143.289062 68.746094 142.953125 68.882812 C 142.882812 68.882812 142.816406 68.949219 142.75 68.949219 C 142.480469 68.949219 142.210938 68.746094 142.140625 68.476562 Z M 145.109375 77.3125 C 144.976562 76.972656 145.179688 76.570312 145.515625 76.433594 C 145.851562 76.300781 146.257812 76.503906 146.394531 76.839844 L 148.957031 84.324219 C 149.09375 84.664062 148.890625 85.066406 148.550781 85.203125 C 148.484375 85.203125 148.417969 85.269531 148.351562 85.269531 C 148.078125 85.269531 147.808594 85.066406 147.742188 84.796875 Z M 151.859375 94.574219 C 151.792969 94.574219 151.722656 94.644531 151.65625 94.644531 C 151.386719 94.644531 151.117188 94.441406 151.050781 94.171875 L 149.632812 89.988281 C 149.496094 89.652344 149.699219 89.246094 150.035156 89.113281 C 150.375 88.976562 150.777344 89.179688 150.914062 89.515625 L 152.332031 93.699219 C 152.398438 94.035156 152.195312 94.441406 151.859375 94.574219 Z M 153.746094 98.148438 L 158.671875 112.3125 C 158.808594 112.648438 158.605469 113.050781 158.269531 113.1875 C 158.203125 113.1875 158.132812 113.253906 158.066406 113.253906 C 157.796875 113.253906 157.527344 113.050781 157.460938 112.78125 L 152.535156 98.621094 C 152.398438 98.285156 152.601562 97.878906 152.9375 97.746094 C 153.277344 97.609375 153.679688 97.746094 153.746094 98.148438 Z M 148.011719 34.085938 C 147.945312 33.746094 148.148438 33.34375 148.484375 33.277344 C 148.824219 33.207031 149.226562 33.410156 149.292969 33.746094 L 153.949219 53.167969 C 154.019531 53.507812 153.816406 53.910156 153.476562 53.980469 C 153.410156 53.980469 153.34375 53.980469 153.34375 53.980469 C 153.003906 53.980469 152.734375 53.777344 152.667969 53.4375 Z M 154.894531 62.679688 C 154.828125 62.339844 155.03125 61.9375 155.367188 61.867188 C 155.703125 61.800781 156.109375 62.003906 156.175781 62.339844 L 161.84375 86.011719 C 161.914062 86.347656 161.710938 86.753906 161.371094 86.820312 C 161.304688 86.820312 161.238281 86.820312 161.238281 86.820312 C 160.902344 86.820312 160.628906 86.617188 160.5625 86.28125 Z M 162.183594 92.957031 C 162.113281 92.621094 162.316406 92.214844 162.65625 92.148438 C 162.992188 92.082031 163.398438 92.28125 163.464844 92.621094 L 167.582031 109.613281 C 167.648438 109.949219 167.445312 110.355469 167.109375 110.421875 C 167.039062 110.421875 166.972656 110.421875 166.972656 110.421875 C 166.636719 110.421875 166.367188 110.21875 166.296875 109.882812 Z M 174.597656 91.472656 C 174.597656 91.472656 174.53125 91.472656 174.53125 91.472656 C 174.191406 91.472656 173.921875 91.203125 173.855469 90.867188 L 173.046875 83.582031 C 172.980469 83.246094 173.25 82.910156 173.652344 82.839844 C 173.992188 82.773438 174.328125 83.042969 174.394531 83.449219 L 175.207031 90.730469 C 175.207031 91.136719 174.933594 91.472656 174.597656 91.472656 Z M 175.746094 108.128906 L 174.394531 95.855469 C 174.328125 95.519531 174.597656 95.183594 175.003906 95.113281 C 175.339844 95.046875 175.675781 95.316406 175.746094 95.722656 L 177.09375 107.996094 C 177.164062 108.332031 176.890625 108.667969 176.488281 108.738281 C 176.488281 108.738281 176.421875 108.738281 176.421875 108.738281 C 176.082031 108.738281 175.746094 108.535156 175.746094 108.128906 Z M 250.574219 214.140625 C 249.832031 214.140625 249.226562 213.53125 249.226562 212.789062 C 249.226562 212.046875 249.832031 211.441406 250.574219 211.441406 C 251.316406 211.441406 251.925781 212.046875 251.925781 212.789062 C 251.925781 213.53125 251.316406 214.140625 250.574219 214.140625 Z M 270.210938 92.6875 C 270.210938 91.609375 271.089844 90.796875 272.101562 90.796875 C 273.113281 90.796875 273.988281 91.675781 273.988281 92.6875 C 273.988281 93.699219 273.113281 94.574219 272.101562 94.574219 C 271.089844 94.574219 270.210938 93.765625 270.210938 92.6875 Z M 301.046875 162.6875 C 301.722656 162.6875 302.261719 163.226562 302.261719 163.898438 C 302.261719 164.574219 301.722656 165.113281 301.046875 165.113281 C 300.375 165.113281 299.832031 164.574219 299.832031 163.898438 C 299.832031 163.226562 300.375 162.6875 301.046875 162.6875 Z M 315.152344 218.925781 C 314.609375 218.925781 314.136719 218.457031 314.136719 217.914062 C 314.136719 217.375 314.609375 216.902344 315.152344 216.902344 C 315.691406 216.902344 316.164062 217.375 316.164062 217.914062 C 316.164062 218.457031 315.691406 218.925781 315.152344 218.925781 Z M 250.644531 294.253906 C 250.644531 295.199219 249.902344 295.9375 248.957031 295.9375 C 248.011719 295.9375 247.269531 295.199219 247.269531 294.253906 C 247.269531 293.308594 248.011719 292.566406 248.957031 292.566406 C 249.902344 292.566406 250.644531 293.375 250.644531 294.253906 Z M 180.535156 303.558594 C 180.535156 304.503906 179.792969 305.246094 178.847656 305.246094 C 177.90625 305.246094 177.164062 304.503906 177.164062 303.558594 C 177.164062 302.617188 177.90625 301.875 178.847656 301.875 C 179.792969 301.875 180.535156 302.617188 180.535156 303.558594 Z M 72.980469 245.09375 C 73.789062 245.09375 74.394531 245.699219 74.394531 246.507812 C 74.394531 247.316406 73.789062 247.925781 72.980469 247.925781 C 72.167969 247.925781 71.5625 247.316406 71.5625 246.507812 C 71.5625 245.699219 72.167969 245.09375 72.980469 245.09375 Z M 35.597656 197.617188 C 35.597656 198.359375 34.992188 198.898438 34.316406 198.898438 C 33.640625 198.898438 33.035156 198.292969 33.035156 197.617188 C 33.035156 196.875 33.640625 196.335938 34.316406 196.335938 C 34.992188 196.335938 35.597656 196.941406 35.597656 197.617188 Z M 61.914062 168.820312 C 61.105469 168.820312 60.429688 168.148438 60.429688 167.339844 C 60.429688 166.53125 61.105469 165.855469 61.914062 165.855469 C 62.722656 165.855469 63.398438 166.53125 63.398438 167.339844 C 63.398438 168.148438 62.722656 168.820312 61.914062 168.820312 Z M 95.515625 94.035156 C 95.515625 93.089844 96.324219 92.28125 97.269531 92.28125 C 98.214844 92.28125 99.023438 93.089844 99.023438 94.035156 C 99.023438 94.980469 98.214844 95.789062 97.269531 95.789062 C 96.257812 95.855469 95.515625 95.046875 95.515625 94.035156 Z M 95.515625 94.035156 "/>
</g>
</g>
</svg>
